<?xml version="1.0" encoding="UTF-8" standalone="no"?>
<!-- Created with Inkscape (http://www.inkscape.org/) -->

<svg
   width="1920"
   height="1080"
   viewBox="0 0 507.99999 285.75"
   version="1.1"
   id="svg1"
   inkscape:export-filename="../../../../../Downloads/elastic_search_python_tuto_cover_w_text.png"
   inkscape:export-xdpi="96"
   inkscape:export-ydpi="96"
   inkscape:version="1.3.2 (1:1.3.2+202404261509+091e20ef0f)"
   sodipodi:docname="course_cover.svg"
   xmlns:inkscape="http://www.inkscape.org/namespaces/inkscape"
   xmlns:sodipodi="http://sodipodi.sourceforge.net/DTD/sodipodi-0.dtd"
   xmlns:xlink="http://www.w3.org/1999/xlink"
   xmlns="http://www.w3.org/2000/svg"
   xmlns:svg="http://www.w3.org/2000/svg">
  <sodipodi:namedview
     id="namedview1"
     pagecolor="#ffffff"
     bordercolor="#000000"
     borderopacity="0.25"
     inkscape:showpageshadow="2"
     inkscape:pageopacity="0.0"
     inkscape:pagecheckerboard="0"
     inkscape:deskcolor="#d1d1d1"
     inkscape:document-units="px"
     inkscape:zoom="0.4204826"
     inkscape:cx="953.66609"
     inkscape:cy="485.15681"
     inkscape:window-width="1920"
     inkscape:window-height="1131"
     inkscape:window-x="0"
     inkscape:window-y="32"
     inkscape:window-maximized="1"
     inkscape:current-layer="layer1" />
  <defs
     id="defs1">
    <inkscape:path-effect
       effect="bspline"
       id="path-effect11"
       is_visible="true"
       lpeversion="1.3"
       weight="33.333333"
       steps="2"
       helper_size="0"
       apply_no_weight="true"
       apply_with_weight="true"
       only_selected="false"
       uniform="false" />
    <inkscape:path-effect
       effect="bspline"
       id="path-effect10"
       is_visible="true"
       lpeversion="1.3"
       weight="33.333333"
       steps="2"
       helper_size="0"
       apply_no_weight="true"
       apply_with_weight="true"
       only_selected="false"
       uniform="false" />
    <linearGradient
       id="paint0_linear_87_8204"
       x1="12.4809"
       y1="2"
       x2="12.4809"
       y2="22.7407"
       gradientUnits="userSpaceOnUse">
      <stop
         stop-color="#327EBD"
         id="stop2" />
      <stop
         offset="1"
         stop-color="#1565A7"
         id="stop3" />
    </linearGradient>
    <linearGradient
       id="paint1_linear_87_8204"
       x1="19.518999"
       y1="9.2592802"
       x2="19.518999"
       y2="30"
       gradientUnits="userSpaceOnUse">
      <stop
         stop-color="#FFDA4B"
         id="stop4" />
      <stop
         offset="1"
         stop-color="#F9C600"
         id="stop5" />
    </linearGradient>
    <linearGradient
       inkscape:collect="always"
       xlink:href="#paint0_linear_87_8204"
       id="linearGradient9"
       gradientUnits="userSpaceOnUse"
       x1="12.4809"
       y1="2"
       x2="12.4809"
       y2="22.7407" />
    <linearGradient
       inkscape:collect="always"
       xlink:href="#paint1_linear_87_8204"
       id="linearGradient10"
       gradientUnits="userSpaceOnUse"
       x1="19.518999"
       y1="9.2592802"
       x2="19.518999"
       y2="30" />
  </defs>
  <g
     inkscape:label="Layer 1"
     inkscape:groupmode="layer"
     id="layer1">
    <rect
       style="fill:#ffffff;stroke:none;stroke-width:1.32292;stroke-linecap:round"
       id="rect2"
       width="508"
       height="285.75"
       x="-6.6035158e-05"
       y="0" />
    <g
       id="g10"
       transform="translate(-552.69832,45.89799)">
      <g
         id="g7"
         transform="matrix(1.6708249,0,0,1.6708249,489.91207,-65.710975)">
        <path
           d="m 129.33707,115.27949 h -16.65142 c 0.0797,0.39836 0.23901,0.79671 0.31869,1.1154 0.5577,1.91213 0.87639,3.90393 1.03573,5.97539 0.0797,0.79672 0.0797,1.67311 0.0797,2.46983 0,0.79672 0,1.67311 -0.0797,2.46983 -0.15934,2.07147 -0.47803,4.06327 -1.03573,5.97539 -0.0797,0.39836 -0.23902,0.79672 -0.31869,1.11541 h 16.65142 c 5.25835,0 9.48096,-4.30228 9.48096,-9.56063 0,-5.25834 -4.22261,-9.56062 -9.48096,-9.56062 z"
           fill="#00a9e5"
           id="path2"
           style="stroke-width:0.796719" />
        <path
           d="m 114.04007,127.30994 c 0.0797,-0.79672 0.0797,-1.67311 0.0797,-2.46983 0,-0.79672 0,-1.67311 -0.0797,-2.46983 -0.15934,-2.07146 -0.47803,-4.06326 -1.03573,-5.97539 -0.0797,-0.39836 -0.23902,-0.79672 -0.31869,-1.1154 H 86.951628 c -0.956063,3.02753 -1.434094,6.2144 -1.434094,9.56062 0,3.34622 0.478031,6.5331 1.434094,9.56063 h 25.734022 c 0.0797,-0.39836 0.23901,-0.79672 0.31869,-1.11541 0.5577,-1.91212 0.87639,-3.90392 1.03573,-5.97539 z"
           fill="#353535"
           id="path3"
           style="stroke-width:0.796719" />
        <path
           d="m 132.20526,137.58762 h -20.71469 c -0.63738,1.43409 -1.35442,2.78851 -2.15114,4.06326 -1.19508,1.9918 -2.62917,3.74458 -4.22261,5.41769 -0.5577,0.5577 -1.11541,1.03573 -1.67311,1.59344 -1.11541,1.03573 -2.39016,1.91212 -3.664908,2.78851 5.019328,3.34622 11.074388,5.25835 17.527818,5.25835 11.07439,0 20.79436,-5.65671 26.53074,-14.1816 -2.94786,-3.02753 -7.0908,-4.93965 -11.6321,-4.93965 z"
           fill="#00bfb3"
           id="path4"
           style="stroke-width:0.796719" />
        <path
           d="m 109.33943,141.65088 c 0.79672,-1.27475 1.51376,-2.62917 2.15114,-4.06326 H 88.146706 c 2.469828,5.6567 6.533095,10.51668 11.711768,13.8629 1.274746,-0.87639 2.469826,-1.75278 3.664906,-2.78851 0.5577,-0.47803 1.11541,-1.03574 1.67311,-1.59344 1.51377,-1.59344 2.94786,-3.42589 4.14294,-5.41769 z"
           fill="#019b8f"
           id="path5"
           style="stroke-width:0.796719" />
        <path
           d="m 105.11682,102.61166 c -0.5577,-0.55771 -1.11541,-1.03574 -1.67311,-1.59344 -1.11541,-1.035737 -2.39016,-1.912128 -3.664908,-2.788519 -5.099001,3.346219 -9.162268,8.206209 -11.711768,13.862909 H 111.4109 c -0.63738,-1.43409 -1.35442,-2.78852 -2.15114,-4.06327 -1.11541,-1.99179 -2.5495,-3.82425 -4.14294,-5.41768 z"
           fill="#f9b110"
           id="path6"
           style="stroke-width:0.796719" />
        <path
           d="m 117.30662,92.971357 c -6.45343,0 -12.50849,1.912125 -17.527818,5.258344 1.274748,0.876391 2.469828,1.752782 3.664908,2.788519 0.5577,0.47803 1.11541,1.03573 1.67311,1.59344 1.59344,1.67311 3.02753,3.42589 4.22261,5.41768 0.79672,1.27475 1.51376,2.62918 2.15114,4.06327 h 20.71469 c 4.5413,0 8.68424,-1.91213 11.6321,-4.93966 -5.73638,-8.524889 -15.45635,-14.181593 -26.53074,-14.181593 z"
           fill="#fed10a"
           id="path7"
           style="stroke-width:0.796719" />
      </g>
      <g
         style="fill:none"
         id="g9"
         transform="matrix(3.8033653,0,0,3.8033653,866.49942,82.021151)">
        <path
           fill-rule="evenodd"
           clip-rule="evenodd"
           d="M 13.0164,2 C 10.8193,2 9.03825,3.72453 9.03825,5.85185 V 8.51852 H 15.9235 V 9.25926 H 5.97814 C 3.78107,9.25926 2,10.9838 2,13.1111 v 5.7778 c 0,2.1273 1.78107,3.8518 3.97814,3.8518 h 2.29508 v -3.2592 c 0,-2.1273 1.78108,-3.8519 3.97818,-3.8519 h 7.3442 c 1.8591,0 3.3661,-1.4592 3.3661,-3.2592 V 5.85185 C 22.9617,3.72453 21.1807,2 18.9836,2 Z m -0.918,4.74074 c 0.7605,0 1.377,-0.59696 1.377,-1.33333 0,-0.73638 -0.6165,-1.33334 -1.377,-1.33334 -0.7606,0 -1.3771,0.59696 -1.3771,1.33334 0,0.73637 0.6165,1.33333 1.3771,1.33333 z"
           fill="url(#paint0_linear_87_8204)"
           id="path8"
           style="fill:url(#linearGradient9)" />
        <path
           fill-rule="evenodd"
           clip-rule="evenodd"
           d="m 18.9834,30 c 2.1971,0 3.9782,-1.7245 3.9782,-3.8518 v -2.6667 h -6.8853 v -0.7407 h 9.9454 c 2.1971,0 3.9781,-1.7246 3.9781,-3.8519 v -5.7778 c 0,-2.1273 -1.781,-3.85182 -3.9781,-3.85182 h -2.2951 v 3.25922 c 0,2.1274 -1.7811,3.8519 -3.9781,3.8519 h -7.3443 c -1.8591,0 -3.36611,1.4592 -3.36611,3.2592 v 6.5186 C 9.03809,28.2755 10.8192,30 13.0162,30 Z m 0.9181,-4.7407 c -0.7606,0 -1.3771,0.5969 -1.3771,1.3333 0,0.7364 0.6165,1.3333 1.3771,1.3333 0.7605,0 1.377,-0.5969 1.377,-1.3333 0,-0.7364 -0.6165,-1.3333 -1.377,-1.3333 z"
           fill="url(#paint1_linear_87_8204)"
           id="path9"
           style="fill:url(#linearGradient10)" />
      </g>
    </g>
    <g
       id="g11"
       transform="translate(-574.45709,36.466812)">
      <path
         style="fill:#000000;stroke:#000000;stroke-width:1.32292;stroke-linecap:round"
         d="m 859.57843,106.72826 c -22.57777,22.57777 -45.15556,45.15555 -67.73333,67.73332"
         id="path10"
         inkscape:path-effect="#path-effect10"
         inkscape:original-d="m 859.57843,106.72826 c -22.57777,22.57777 -45.15557,45.15554 -67.73333,67.73332"
         transform="translate(2.7452608,11.711258)" />
      <path
         style="fill:#000000;stroke:#000000;stroke-width:1.32292;stroke-linecap:round"
         d="m 791.8451,106.72826 c 22.57777,22.57776 45.15555,45.15555 67.73333,67.73332"
         id="path11"
         inkscape:path-effect="#path-effect11"
         inkscape:original-d="m 791.8451,106.72826 c 22.57776,22.57777 45.15556,45.15554 67.73333,67.73332"
         transform="translate(2.7452608,11.711258)" />
    </g>
    <text
       xml:space="preserve"
       style="font-weight:bold;font-size:50.8px;font-family:Roboto;-inkscape-font-specification:'Roboto Bold';fill:#000000;stroke:#000000;stroke-width:6.49397;stroke-linecap:round"
       x="251.70551"
       y="58.747623"
       id="text11"><tspan
         sodipodi:role="line"
         style="font-style:normal;font-variant:normal;font-weight:300;font-stretch:normal;font-size:50.8px;font-family:Roboto;-inkscape-font-specification:'Roboto Light';text-align:center;text-anchor:middle;stroke:none;stroke-width:6.49397"
         x="257.89426"
         y="58.747623"
         id="tspan12">Free Course </tspan></text>
    <text
       xml:space="preserve"
       style="font-weight:bold;font-size:25.4px;font-family:Roboto;-inkscape-font-specification:'Roboto Bold';fill:#000000;stroke:#000000;stroke-width:3.72112;stroke-linecap:round"
       x="254.30998"
       y="98.541382"
       id="text13"><tspan
         sodipodi:role="line"
         style="font-style:normal;font-variant:normal;font-weight:300;font-stretch:normal;font-size:25.4px;font-family:Roboto;-inkscape-font-specification:'Roboto Light';text-align:center;text-anchor:middle;stroke:none;stroke-width:3.72112"
         x="254.30998"
         y="98.541382"
         id="tspan13">for beginners</tspan></text>
  </g>
</svg>
