<?xml version="1.0" encoding="UTF-8" standalone="no"?>
<!-- Created with Inkscape (http://www.inkscape.org/) -->

<svg
   width="1920"
   height="1080"
   viewBox="0 0 507.99999 285.75"
   version="1.1"
   id="svg1"
   inkscape:version="1.4 (1:1.4+202410161351+e7c3feb100)"
   sodipodi:docname="thumbnail .svg"
   xml:space="preserve"
   inkscape:export-filename="thumbnail .png"
   inkscape:export-xdpi="96"
   inkscape:export-ydpi="96"
   xmlns:inkscape="http://www.inkscape.org/namespaces/inkscape"
   xmlns:sodipodi="http://sodipodi.sourceforge.net/DTD/sodipodi-0.dtd"
   xmlns="http://www.w3.org/2000/svg"
   xmlns:svg="http://www.w3.org/2000/svg"><sodipodi:namedview
     id="namedview1"
     pagecolor="#ffffff"
     bordercolor="#000000"
     borderopacity="0.25"
     inkscape:showpageshadow="2"
     inkscape:pageopacity="0.0"
     inkscape:pagecheckerboard="0"
     inkscape:deskcolor="#d1d1d1"
     inkscape:document-units="px"
     inkscape:zoom="0.57681581"
     inkscape:cx="744.60511"
     inkscape:cy="595.51072"
     inkscape:window-width="1920"
     inkscape:window-height="1131"
     inkscape:window-x="0"
     inkscape:window-y="32"
     inkscape:window-maximized="1"
     inkscape:current-layer="layer1"
     showguides="true"><sodipodi:guide
       position="291.70306,28.931638"
       orientation="0,-1"
       id="guide1"
       inkscape:locked="false" /><sodipodi:guide
       position="31.749968,111.31377"
       orientation="1,0"
       id="guide2"
       inkscape:locked="false" /></sodipodi:namedview><defs
     id="defs1"><inkscape:path-effect
       effect="perspective-envelope"
       up_left_point="1.552625,0"
       up_right_point="510.44795,0"
       down_left_point="1.552625,512.00101"
       down_right_point="510.44795,512.00101"
       id="path-effect37"
       is_visible="true"
       lpeversion="1"
       deform_type="perspective"
       horizontal_mirror="false"
       vertical_mirror="false"
       overflow_perspective="false" /><style
       id="style1-6">.cls-1{fill:none;stroke:#000000;stroke-linejoin:round;}</style></defs><g
     inkscape:label="Layer 1"
     inkscape:groupmode="layer"
     id="layer1"><rect
       style="fill:#0d0d0d;stroke-width:1.32292;stroke-linecap:round;stroke-linejoin:round;fill-opacity:1"
       id="rect1"
       width="508"
       height="285.75"
       x="0"
       y="0" /><text
       xml:space="preserve"
       style="font-size:28.2325px;line-height:1.5;font-family:'Roboto Condensed';-inkscape-font-specification:'Roboto Condensed, ';text-align:end;letter-spacing:0px;writing-mode:lr-tb;direction:ltr;text-anchor:end;fill:#ffffff;fill-opacity:1;stroke-width:3.3085;stroke-linecap:round;stroke-linejoin:round"
       x="31.033157"
       y="52.111038"
       id="text5"><tspan
         sodipodi:role="line"
         style="font-style:normal;font-variant:normal;font-weight:800;font-stretch:normal;font-family:'Roboto Condensed';-inkscape-font-specification:'Roboto Condensed,  Ultra-Bold';text-align:start;text-anchor:start;fill:#ffffff;stroke-width:3.3085"
         x="31.033157"
         y="52.111038"
         id="tspan6">TRAIN YOUR OWN</tspan><tspan
         sodipodi:role="line"
         style="font-style:normal;font-variant:normal;font-weight:800;font-stretch:normal;font-family:'Roboto Condensed';-inkscape-font-specification:'Roboto Condensed,  Ultra-Bold';text-align:start;text-anchor:start;fill:#ffffff;stroke-width:3.3085"
         x="31.033157"
         y="94.459785"
         id="tspan223">LANGUAGE MODEL</tspan></text><g
       id="g231"><rect
         style="opacity:0.536278;fill:#86a9fd;fill-opacity:1;stroke:none;stroke-width:1.45343;stroke-linecap:round;stroke-linejoin:round"
         id="rect231"
         width="186.22281"
         height="227.88672"
         x="291.70306"
         y="28.931639"
         ry="7.9391575" /><g
         stroke="#000000"
         stroke-width="2"
         id="g36"
         transform="matrix(0.35780676,0,0,0.35780676,295.18341,35.526857)"><g
           id="g3"><path
             d="m 16.486,384.78 h 45.636 c 1.5768,0 2.8462,1.2694 2.8462,2.8462 v 20.711 c 0,1.5768 -1.2694,2.8462 -2.8462,2.8462 H 16.486 c -1.5768,0 -2.8462,-1.2694 -2.8462,-2.8462 v -20.711 c 0,-1.5768 1.2694,-2.8462 2.8462,-2.8462 z"
             fill="#dae8fc"
             id="path1" /><path
             d="m 225.86,34.12 h 246.99 c 7.4864,0 13.513,6.027 13.513,13.513 v 501.15 c 0,7.4864 -6.027,13.513 -13.513,13.513 H 225.86 c -7.4864,0 -13.513,-6.027 -13.513,-13.513 V 47.633 c 0,-7.4864 6.027,-13.513 13.513,-13.513 z"
             fill="#ffe6cc"
             id="path2" /><path
             d="m 44.71,140.85 h 90.481 c 1.5768,0 2.8462,1.2694 2.8462,2.8462 v 12.496 c 0,1.5768 -1.2694,2.8462 -2.8462,2.8462 H 44.71 c -1.5768,0 -2.8462,-1.2694 -2.8462,-2.8462 v -12.496 c 0,-1.5768 1.2694,-2.8462 2.8462,-2.8462 z"
             fill="#d5e8d4"
             id="path3" /></g><g
           fill="#ffe6cc"
           id="g6"><path
             d="m 44.71,239.46 h 90.481 c 1.5768,0 2.8462,1.2694 2.8462,2.8462 v 20.711 c 0,1.5768 -1.2694,2.8462 -2.8462,2.8462 H 44.71 c -1.5768,0 -2.8462,-1.2694 -2.8462,-2.8462 v -20.711 c 0,-1.5768 1.2694,-2.8462 2.8462,-2.8462 z"
             id="path4" /><path
             d="m 44.71,277.81 h 90.481 c 1.5768,0 2.8462,1.2694 2.8462,2.8462 v 20.711 c 0,1.5768 -1.2694,2.8462 -2.8462,2.8462 H 44.71 c -1.5768,0 -2.8462,-1.2694 -2.8462,-2.8462 v -20.711 c 0,-1.5768 1.2694,-2.8462 2.8462,-2.8462 z"
             id="path5" /><path
             d="m 44.71,316.15 h 90.481 c 1.5768,0 2.8462,1.2694 2.8462,2.8462 v 20.711 c 0,1.5768 -1.2694,2.8462 -2.8462,2.8462 H 44.71 c -1.5768,0 -2.8462,-1.2694 -2.8462,-2.8462 v -20.711 c 0,-1.5768 1.2694,-2.8462 2.8462,-2.8462 z"
             id="path6" /></g><g
           fill="#dae8fc"
           id="g15"><path
             d="m 44.71,170.98 h 90.481 c 1.5768,0 2.8462,1.2694 2.8462,2.8462 v 20.711 c 0,1.5768 -1.2694,2.8462 -2.8462,2.8462 H 44.71 c -1.5768,0 -2.8462,-1.2694 -2.8462,-2.8462 v -20.711 c 0,-1.5768 1.2694,-2.8462 2.8462,-2.8462 z"
             id="path7" /><path
             d="m 44.71,209.33 h 90.481 c 1.5768,0 2.8462,1.2694 2.8462,2.8462 v 12.496 c 0,1.5768 -1.2694,2.8462 -2.8462,2.8462 H 44.71 c -1.5768,0 -2.8462,-1.2694 -2.8462,-2.8462 v -12.496 c 0,-1.5768 1.2694,-2.8462 2.8462,-2.8462 z"
             id="path8" /><path
             d="m 44.71,422.66 h 90.481 c 1.5768,0 2.8462,1.2694 2.8462,2.8462 v 20.711 c 0,1.5768 -1.2694,2.8462 -2.8462,2.8462 H 44.71 c -1.5768,0 -2.8462,-1.2694 -2.8462,-2.8462 v -20.711 c 0,-1.5768 1.2694,-2.8462 2.8462,-2.8462 z"
             id="path9" /><path
             d="m 304.11,213.12 h 90.481 c 1.5768,0 2.8462,1.2694 2.8462,2.8462 v 12.496 c 0,1.5768 -1.2694,2.8462 -2.8462,2.8462 H 304.11 c -1.5768,0 -2.8463,-1.2694 -2.8463,-2.8462 v -12.496 c 0,-1.5768 1.2694,-2.8462 2.8463,-2.8462 z"
             id="path10" /><path
             d="m 304.11,299.49 h 90.481 c 1.5768,0 2.8462,1.2694 2.8462,2.8462 v 20.711 c 0,1.5768 -1.2694,2.8462 -2.8462,2.8462 H 304.11 c -1.5768,0 -2.8463,-1.2694 -2.8463,-2.8462 v -20.711 c 0,-1.5768 1.2694,-2.8462 2.8463,-2.8462 z"
             id="path11" /><path
             d="m 295.56,522 h 107.59 c 1.5768,0 2.8462,1.2694 2.8462,2.8462 v 12.496 c 0,1.5768 -1.2694,2.8462 -2.8462,2.8462 H 295.56 c -1.5768,0 -2.8463,-1.2694 -2.8463,-2.8462 v -12.496 c 0,-1.5768 1.2694,-2.8462 2.8463,-2.8462 z"
             id="path12" /><path
             d="m 240.14,481.64 h 218.43 a 1.2214,1.1104 0 0 1 0.63579,2.0585 l -43.832,24.296 a 15.49,14.083 0 0 1 -8.0634,2.0585 h -115.91 a 15.49,14.083 0 0 1 -8.0634,-2.0585 l -43.832,-24.296 a 1.2214,1.1104 0 0 1 0.63579,-2.0585 z"
             id="path13" /><path
             d="m 247.25,167.52 h 204.21 a 1.1419,1.1104 0 0 1 0.5944,2.0585 l -40.98,24.296 a 14.482,14.083 0 0 1 -7.5386,2.0585 h -108.36 a 14.482,14.083 0 0 1 -7.5386,-2.0585 l -40.98,-24.296 a 1.1419,1.1104 0 0 1 0.59447,-2.0585 z"
             id="path14" /><path
             d="m 247.25,125.45 h 204.21 a 1.1419,1.1104 0 0 0 0.5944,-2.0585 l -40.98,-24.296 a 14.482,14.083 0 0 0 -7.5386,-2.0585 h -108.36 a 14.482,14.083 0 0 0 -7.5386,2.0585 l -40.98,24.296 a 1.1419,1.1104 0 0 0 0.59447,2.0585 z"
             id="path15" /></g><g
           fill="#ffffcc"
           id="g35"><path
             d="m 44.71,354.5 h 90.481 c 1.5768,0 2.8462,1.2694 2.8462,2.8462 v 12.496 c 0,1.5768 -1.2694,2.8462 -2.8462,2.8462 H 44.71 c -1.5768,0 -2.8462,-1.2694 -2.8462,-2.8462 v -12.496 c 0,-1.5768 1.2694,-2.8462 2.8462,-2.8462 z"
             id="path16" /><path
             d="m 304.11,66.91 h 90.481 c 1.5768,0 2.8462,1.2694 2.8462,2.8462 v 12.496 c 0,1.5768 -1.2694,2.8462 -2.8462,2.8462 H 304.11 c -1.5768,0 -2.8463,-1.2694 -2.8463,-2.8462 v -12.496 c 0,-1.5768 1.2694,-2.8462 2.8463,-2.8462 z"
             id="path17" /><path
             d="m 248.95,137.39 h 200.8 c 1.5768,0 2.8462,1.2694 2.8462,2.8462 v 12.496 c 0,1.5768 -1.2694,2.8462 -2.8462,2.8462 h -200.8 c -1.5768,0 -2.8462,-1.2694 -2.8462,-2.8462 v -12.496 c 0,-1.5768 1.2694,-2.8462 2.8462,-2.8462 z"
             id="path18" /><path
             d="m 304.11,269.36 h 90.481 c 1.5768,0 2.8462,1.2694 2.8462,2.8462 v 12.496 c 0,1.5768 -1.2694,2.8462 -2.8462,2.8462 H 304.11 c -1.5768,0 -2.8463,-1.2694 -2.8463,-2.8462 v -12.496 c 0,-1.5768 1.2694,-2.8462 2.8463,-2.8462 z"
             id="path19" /><path
             d="m 241.77,337.83 h 64.552 c 1.5768,0 2.8462,1.2694 2.8462,2.8462 v 11.126 c 0,1.5768 -1.2694,2.8462 -2.8462,2.8462 H 241.77 c -1.5768,0 -2.8462,-1.2694 -2.8462,-2.8462 v -11.126 c 0,-1.5768 1.2694,-2.8462 2.8462,-2.8462 z"
             id="path20" /><path
             d="m 317.08,337.83 h 64.552 c 1.5768,0 2.8462,1.2694 2.8462,2.8462 v 11.126 c 0,1.5768 -1.2694,2.8462 -2.8462,2.8462 H 317.08 c -1.5768,0 -2.8462,-1.2694 -2.8462,-2.8462 v -11.126 c 0,-1.5768 1.2694,-2.8462 2.8462,-2.8462 z"
             id="path21" /><path
             d="m 392.38,337.83 h 64.552 c 1.5768,0 2.8462,1.2694 2.8462,2.8462 v 11.126 c 0,1.5768 -1.2694,2.8462 -2.8462,2.8462 H 392.38 c -1.5768,0 -2.8462,-1.2694 -2.8462,-2.8462 v -11.126 c 0,-1.5768 1.2694,-2.8462 2.8462,-2.8462 z"
             id="path22" /><path
             d="m 241.77,366.59 h 55.287 c 1.5768,0 2.8462,1.2694 2.8462,2.8462 v 11.126 c 0,1.5768 -1.2694,2.8462 -2.8462,2.8462 H 241.77 c -1.5768,0 -2.8462,-1.2694 -2.8462,-2.8462 v -11.126 c 0,-1.5768 1.2694,-2.8462 2.8462,-2.8462 z"
             id="path23" /><path
             d="m 241.77,395.36 h 55.287 c 1.5768,0 2.8462,1.2694 2.8462,2.8462 v 11.126 c 0,1.5768 -1.2694,2.8462 -2.8462,2.8462 H 241.77 c -1.5768,0 -2.8462,-1.2694 -2.8462,-2.8462 v -11.126 c 0,-1.5768 1.2694,-2.8462 2.8462,-2.8462 z"
             id="path24" /><path
             d="m 241.77,424.12 h 55.287 c 1.5768,0 2.8462,1.2694 2.8462,2.8462 v 11.126 c 0,1.5768 -1.2694,2.8462 -2.8462,2.8462 H 241.77 c -1.5768,0 -2.8462,-1.2694 -2.8462,-2.8462 v -11.126 c 0,-1.5768 1.2694,-2.8462 2.8462,-2.8462 z"
             id="path25" /><path
             d="m 241.77,452.88 h 55.287 c 1.5768,0 2.8462,1.2694 2.8462,2.8462 v 11.126 c 0,1.5768 -1.2694,2.8462 -2.8462,2.8462 H 241.77 c -1.5768,0 -2.8462,-1.2694 -2.8462,-2.8462 v -11.126 c 0,-1.5768 1.2694,-2.8462 2.8462,-2.8462 z"
             id="path26" /><path
             d="m 317.07,366.59 h 55.287 c 1.5768,0 2.8462,1.2694 2.8462,2.8462 v 11.126 c 0,1.5768 -1.2694,2.8462 -2.8462,2.8462 H 317.07 c -1.5768,0 -2.8463,-1.2694 -2.8463,-2.8462 v -11.126 c 0,-1.5768 1.2694,-2.8462 2.8463,-2.8462 z"
             id="path27" /><path
             d="m 317.07,395.36 h 55.287 c 1.5768,0 2.8462,1.2694 2.8462,2.8462 v 11.126 c 0,1.5768 -1.2694,2.8462 -2.8462,2.8462 H 317.07 c -1.5768,0 -2.8463,-1.2694 -2.8463,-2.8462 v -11.126 c 0,-1.5768 1.2694,-2.8462 2.8463,-2.8462 z"
             id="path28" /><path
             d="m 317.07,424.12 h 55.287 c 1.5768,0 2.8462,1.2694 2.8462,2.8462 v 11.126 c 0,1.5768 -1.2694,2.8462 -2.8462,2.8462 H 317.07 c -1.5768,0 -2.8463,-1.2694 -2.8463,-2.8462 v -11.126 c 0,-1.5768 1.2694,-2.8462 2.8463,-2.8462 z"
             id="path29" /><path
             d="m 317.07,452.88 h 55.287 c 1.5768,0 2.8462,1.2694 2.8462,2.8462 v 11.126 c 0,1.5768 -1.2694,2.8462 -2.8462,2.8462 H 317.07 c -1.5768,0 -2.8463,-1.2694 -2.8463,-2.8462 v -11.126 c 0,-1.5768 1.2694,-2.8462 2.8463,-2.8462 z"
             id="path30" /><path
             d="m 392.38,366.59 h 55.287 c 1.5768,0 2.8463,1.2694 2.8463,2.8462 v 11.126 c 0,1.5768 -1.2694,2.8462 -2.8463,2.8462 H 392.38 c -1.5768,0 -2.8462,-1.2694 -2.8462,-2.8462 v -11.126 c 0,-1.5768 1.2694,-2.8462 2.8462,-2.8462 z"
             id="path31" /><path
             d="m 392.38,395.36 h 55.287 c 1.5768,0 2.8463,1.2694 2.8463,2.8462 v 11.126 c 0,1.5768 -1.2694,2.8462 -2.8463,2.8462 H 392.38 c -1.5768,0 -2.8462,-1.2694 -2.8462,-2.8462 v -11.126 c 0,-1.5768 1.2694,-2.8462 2.8462,-2.8462 z"
             id="path32" /><path
             d="m 392.38,424.12 h 55.287 c 1.5768,0 2.8463,1.2694 2.8463,2.8462 v 11.126 c 0,1.5768 -1.2694,2.8462 -2.8463,2.8462 H 392.38 c -1.5768,0 -2.8462,-1.2694 -2.8462,-2.8462 v -11.126 c 0,-1.5768 1.2694,-2.8462 2.8462,-2.8462 z"
             id="path33" /><path
             d="m 392.38,452.88 h 55.287 c 1.5768,0 2.8463,1.2694 2.8463,2.8462 v 11.126 c 0,1.5768 -1.2694,2.8462 -2.8463,2.8462 H 392.38 c -1.5768,0 -2.8462,-1.2694 -2.8462,-2.8462 v -11.126 c 0,-1.5768 1.2694,-2.8462 2.8462,-2.8462 z"
             id="path34" /><path
             d="m 456.94,337.83 h -64.552 c -1.5768,0 -2.8462,1.2694 -2.8462,2.8462 v 11.126 c 0,1.5768 1.2694,2.8462 2.8462,2.8462 h 64.552 c 1.5768,0 2.8462,-1.2694 2.8462,-2.8462 v -11.126 c 0,-1.5768 -1.2694,-2.8462 -2.8462,-2.8462 z"
             id="path35" /></g></g><g
         id="g82"
         transform="matrix(0.35780676,0,0,0.35780676,295.18341,35.526857)"><path
           d="m 89.95,343.56 -2.8216,7.7614 c 0.59245,-0.50636 1.2743,-0.83084 1.9817,-0.97379 v 4.1469 h 1.6798 v -4.1469 c 0.70836,0.14249 1.3906,0.46638 1.9818,0.97379 z"
           id="path36" /><path
           d="m 89.95,305.22 -2.8216,7.7614 c 0.59245,-0.50635 1.2743,-0.83083 1.9817,-0.97379 v 4.1469 h 1.6798 v -4.1469 c 0.70836,0.14249 1.3906,0.46638 1.9818,0.97379 z"
           id="path37" /><path
           d="m 89.95,266.87 -2.8216,7.7614 c 0.59245,-0.50635 1.2743,-0.83083 1.9817,-0.97379 v 4.1469 h 1.6798 v -4.1469 c 0.70836,0.1425 1.3906,0.46638 1.9818,0.97379 z"
           id="path38" /><path
           d="m 89.95,228.53 -2.8216,7.7614 c 0.59245,-0.50636 1.2743,-0.83084 1.9817,-0.97379 v 4.1469 h 1.6798 v -4.1469 c 0.70836,0.14249 1.3906,0.46638 1.9818,0.97379 z"
           id="path39" /><path
           d="m 89.95,198.39 -2.8216,7.7614 c 0.59245,-0.50635 1.2743,-0.83083 1.9817,-0.97379 v 4.1469 h 1.6798 v -4.1469 c 0.70836,0.14249 1.3906,0.46638 1.9818,0.97379 z"
           id="path40" /><path
           d="m 89.95,160.05 -2.8216,7.7614 c 0.59245,-0.50635 1.2743,-0.83083 1.9817,-0.97379 v 4.1469 h 1.6798 v -4.1469 c 0.70836,0.14249 1.3906,0.46638 1.9818,0.97379 z"
           id="path41" /><path
           d="m 89.95,124.77 -2.8216,7.7614 c 0.59245,-0.50635 1.2743,-0.83083 1.9817,-0.97379 v 9.2907 h 1.6798 v -9.2907 c 0.70836,0.1425 1.3906,0.46638 1.9818,0.97379 z"
           id="path42" /><path
           d="m 89.95,450.07 -2.8216,7.7614 c 0.59245,-0.50636 1.2743,-0.83084 1.9817,-0.97379 v 11.651 h 1.6798 v -11.651 c 0.70836,0.14249 1.3906,0.46638 1.9818,0.97379 z"
           id="path43" /><path
           d="m 89.95,405.01 -2.8216,7.7614 c 0.59245,-0.50636 1.2743,-0.83084 1.9817,-0.97379 v 10.858 h 1.6798 v -10.858 c 0.70836,0.14249 1.3906,0.46638 1.9818,0.97379 z"
           id="path44" /><path
           d="m 89.95,390.33 -2.8216,-7.7614 c 0.59245,0.50636 1.2743,0.83084 1.9817,0.97379 v -10.858 h 1.6798 v 10.858 c 0.70836,-0.14249 1.3906,-0.46638 1.9818,-0.97379 z"
           id="path45" /><path
           d="m 82.61,397.98 -7.7615,2.8216 c 0.50638,-0.59244 0.83086,-1.2743 0.97378,-1.9817 h -10.858 v -1.6798 h 10.858 c -0.14245,-0.70831 -0.46633,-1.3906 -0.97378,-1.9817 z"
           id="path46" /><path
           d="m 349.35,20.72 2.8216,7.7614 c -0.59245,-0.50635 -1.2743,-0.83083 -1.9817,-0.97379 v 13.789 H 348.51 v -13.789 c -0.70829,0.14249 -1.3906,0.46638 -1.9817,0.97379 z"
           id="path47" /><path
           d="m 269.41,441.94 -2.8216,7.7614 c 0.59245,-0.50635 1.2743,-0.83083 1.9817,-0.97379 v 4.1469 h 1.6799 v -4.1469 c 0.70836,0.14249 1.3906,0.46638 1.9818,0.97379 z"
           id="path48" /><path
           d="m 262.33,470.7 -2.8216,7.7614 c 0.59245,-0.50636 1.2743,-0.83084 1.9817,-0.97379 v 4.1469 h 1.6798 v -4.1469 c 0.7083,0.14249 1.3906,0.46638 1.9817,0.97379 z"
           id="path49" /><path
           d="m 276.49,470.7 -2.8217,7.7614 c 0.59245,-0.50636 1.2743,-0.83084 1.9818,-0.97379 v 4.1469 h 1.6798 v -4.1469 c 0.70829,0.14249 1.3906,0.46638 1.9817,0.97379 z"
           id="path50" /><path
           d="m 304.53,355.66 -2.8216,7.7614 c 0.59239,-0.50635 1.2743,-0.83083 1.9817,-0.97379 v 119.19 h 1.6799 v -119.19 c 0.70829,0.14249 1.3906,0.46638 1.9817,0.97379 z"
           id="path51" /><path
           d="m 269.41,413.18 -2.8216,7.7614 c 0.59245,-0.50636 1.2743,-0.83084 1.9817,-0.9738 v 4.1469 h 1.6799 v -4.1469 c 0.70836,0.1425 1.3906,0.46639 1.9818,0.9738 z"
           id="path52" /><path
           d="m 269.41,384.42 -2.8216,7.7614 c 0.59245,-0.50636 1.2743,-0.83084 1.9817,-0.97379 v 4.1469 h 1.6799 v -4.1469 c 0.70836,0.14249 1.3906,0.46638 1.9818,0.97379 z"
           id="path53" /><path
           d="m 269.41,355.66 -2.8216,7.7614 c 0.59245,-0.50635 1.2743,-0.83083 1.9817,-0.97379 v 4.1469 h 1.6799 v -4.1469 c 0.70836,0.14249 1.3906,0.46638 1.9818,0.97379 z"
           id="path54" /><path
           d="m 344.72,441.94 -2.8216,7.7614 c 0.59238,-0.50635 1.2742,-0.83083 1.9817,-0.97379 v 4.1469 h 1.6798 v -4.1469 c 0.7083,0.14249 1.3906,0.46638 1.9817,0.97379 z"
           id="path55" /><path
           d="m 337.64,470.7 -2.8217,7.7614 c 0.59245,-0.50636 1.2743,-0.83084 1.9818,-0.97379 v 4.1469 h 1.6798 v -4.1469 c 0.70829,0.14249 1.3905,0.46638 1.9817,0.97379 z"
           id="path56" /><path
           d="m 351.8,470.7 -2.8216,7.7614 c 0.59245,-0.50636 1.2743,-0.83084 1.9817,-0.97379 v 4.1469 h 1.6799 v -4.1469 c 0.70829,0.14249 1.3906,0.46638 1.9817,0.97379 z"
           id="path57" /><path
           d="m 379.84,355.66 -2.8216,7.7614 c 0.59245,-0.50635 1.2743,-0.83083 1.9817,-0.97379 v 119.19 h 1.6798 v -119.19 c 0.70836,0.14249 1.3906,0.46638 1.9818,0.97379 z"
           id="path58" /><path
           d="m 344.72,413.18 -2.8216,7.7614 c 0.59238,-0.50636 1.2742,-0.83084 1.9817,-0.9738 v 4.1469 h 1.6798 v -4.1469 c 0.7083,0.1425 1.3906,0.46639 1.9817,0.9738 z"
           id="path59" /><path
           d="m 344.72,384.42 -2.8216,7.7614 c 0.59238,-0.50636 1.2742,-0.83084 1.9817,-0.97379 v 4.1469 h 1.6798 v -4.1469 c 0.7083,0.14249 1.3906,0.46638 1.9817,0.97379 z"
           id="path60" /><path
           d="m 344.72,355.66 -2.8216,7.7614 c 0.59238,-0.50635 1.2742,-0.83083 1.9817,-0.97379 v 4.1469 h 1.6798 v -4.1469 c 0.7083,0.14249 1.3906,0.46638 1.9817,0.97379 z"
           id="path61" /><path
           d="m 420.02,441.94 -2.8216,7.7614 c 0.59245,-0.50635 1.2743,-0.83083 1.9817,-0.97379 v 4.1469 h 1.6798 v -4.1469 c 0.7083,0.14249 1.3906,0.46638 1.9817,0.97379 z"
           id="path62" /><path
           d="m 412.94,470.7 -2.8216,7.7614 c 0.59238,-0.50636 1.2743,-0.83084 1.9817,-0.97379 v 4.1469 h 1.6799 v -4.1469 c 0.70829,0.14249 1.3906,0.46638 1.9817,0.97379 z"
           id="path63" /><path
           d="m 427.1,470.7 -2.8217,7.7614 c 0.59245,-0.50636 1.2743,-0.83084 1.9818,-0.97379 v 4.1469 h 1.6798 v -4.1469 c 0.7083,0.14249 1.3905,0.46638 1.9817,0.97379 z"
           id="path64" /><path
           d="m 455.15,355.66 -2.8216,7.7614 c 0.59245,-0.50635 1.2743,-0.83083 1.9817,-0.97379 v 119.19 h 1.6798 v -119.19 c 0.70829,0.14249 1.3906,0.46638 1.9817,0.97379 z"
           id="path65" /><path
           d="m 420.02,413.18 -2.8216,7.7614 c 0.59245,-0.50636 1.2743,-0.83084 1.9817,-0.9738 v 4.1469 h 1.6798 v -4.1469 c 0.7083,0.1425 1.3906,0.46639 1.9817,0.9738 z"
           id="path66" /><path
           d="m 420.02,384.42 -2.8216,7.7614 c 0.59245,-0.50636 1.2743,-0.83084 1.9817,-0.97379 v 4.1469 h 1.6798 v -4.1469 c 0.7083,0.14249 1.3906,0.46638 1.9817,0.97379 z"
           id="path67" /><path
           d="m 420.02,355.66 -2.8216,7.7614 c 0.59245,-0.50635 1.2743,-0.83083 1.9817,-0.97379 v 4.1469 h 1.6798 v -4.1469 c 0.7083,0.14249 1.3906,0.46638 1.9817,0.97379 z"
           id="path68" /><path
           d="m 349.35,326.9 -2.8216,7.7614 c 0.59239,-0.50635 1.2743,-0.83083 1.9817,-0.97379 v 4.1469 h 1.6799 v -4.1469 c 0.70829,0.14249 1.3906,0.46638 1.9817,0.97379 z"
           id="path69" /><path
           d="m 349.35,257.68 2.8216,7.7614 c -0.59245,-0.50635 -1.2743,-0.83083 -1.9817,-0.97379 v 4.8934 H 348.51 v -4.8934 c -0.70829,0.14249 -1.3906,0.46638 -1.9817,0.97379 z"
           id="path70" /><path
           d="m 356.69,250.33 7.7615,2.8216 c -0.50638,-0.59244 -0.83086,-1.2743 -0.97378,-1.9817 h 10.858 v -1.6798 h -10.858 c 0.14245,-0.70831 0.46633,-1.3906 0.97378,-1.9817 z"
           id="path71" /><path
           d="m 349.35,232.32 2.8216,7.7614 c -0.59245,-0.50635 -1.2743,-0.83083 -1.9817,-0.97379 v 4.8934 H 348.51 v -4.8934 c -0.70829,0.14249 -1.3906,0.46638 -1.9817,0.97379 z"
           id="path72" /><path
           d="m 349.35,54.97 2.8216,7.7614 c -0.59245,-0.50635 -1.2743,-0.83083 -1.9817,-0.97379 v 5.1473 H 348.51 v -5.1473 c -0.70829,0.1425 -1.3906,0.46638 -1.9817,0.97379 z"
           id="path73" /><path
           d="m 349.35,288.55 -2.8216,7.7614 c 0.59239,-0.50636 1.2743,-0.83084 1.9817,-0.97379 v 4.1469 h 1.6799 v -4.1469 c 0.70829,0.14249 1.3906,0.46638 1.9817,0.97379 z"
           id="path74" /><path
           d="m 349.35,156.59 -2.8216,7.7614 c 0.59239,-0.50636 1.2743,-0.83084 1.9817,-0.97379 v 4.1469 h 1.6799 v -4.1469 c 0.70829,0.14249 1.3906,0.46638 1.9817,0.97379 z"
           id="path75" /><path
           d="m 349.35,126.46 -2.8216,7.7614 c 0.59239,-0.50636 1.2743,-0.83084 1.9817,-0.9738 v 4.1469 h 1.6799 v -4.1469 c 0.70829,0.1425 1.3906,0.46639 1.9817,0.9738 z"
           id="path76" /><path
           d="m 349.35,86.1 -2.8216,7.7614 c 0.59239,-0.50635 1.2743,-0.83083 1.9817,-0.97379 v 4.1469 h 1.6799 v -4.1469 c 0.70829,0.14249 1.3906,0.46638 1.9817,0.97379 z"
           id="path77" /><path
           d="m 349.35,511.06 -2.8216,7.7614 c 0.59239,-0.50636 1.2742,-0.83084 1.9817,-0.97379 v 4.1469 h 1.6799 v -4.1469 c 0.70829,0.14249 1.3906,0.46638 1.9817,0.97379 z"
           id="path78" /><path
           d="m 300.55,324.5 -8.2011,0.96985 c 0.71865,0.30152 1.3155,0.76444 1.7612,1.3321 l -21.923,11.036 h 3.7337 l 18.944,-9.5358 c 0.19116,0.69673 0.20843,1.4513 0.0208,2.2074 z"
           id="path79" /><path
           d="m 398.16,324.5 8.2011,0.96985 c -0.71864,0.30152 -1.3155,0.76444 -1.7612,1.3321 l 21.923,11.036 h -3.7337 l -18.944,-9.5358 c -0.19117,0.69673 -0.20844,1.4513 -0.0208,2.2074 z"
           id="path80" /><path
           d="m 364.46,247.51 -7.7615,2.8216 7.7615,2.8216 c -0.50637,-0.59244 -0.83085,-1.2743 -0.97378,-1.9817 h 105.16 v 300.6 h -118.45 v -3.798 c 0.7083,0.14249 1.3906,0.46638 1.9817,0.97379 l -2.8216,-7.7614 -2.8216,7.7614 c 0.59238,-0.50635 1.2742,-0.83083 1.9817,-0.97379 v 26.569 h 1.6798 v -21.091 h 120.13 v -303.96 h -106.84 c 0.14246,-0.7083 0.46633,-1.3906 0.97378,-1.9817 z"
           id="path81" /><path
           d="m 364.46,44.81 -7.7615,2.8216 7.7615,2.8216 c -0.50637,-0.59244 -0.83085,-1.2743 -0.97378,-1.9817 h 105.16 v 158.49 h -118.45 v -3.2258 c 0.7083,0.14249 1.3906,0.46638 1.9817,0.97379 l -2.8216,-7.7614 -2.8216,7.7614 c 0.59238,-0.50636 1.2743,-0.83084 1.9817,-0.97379 v 9.3927 h 1.6798 v -4.487 h 120.13 v -161.85 h -106.84 c 0.14246,-0.7083 0.46633,-1.3906 0.97378,-1.9817 z"
           id="path82" /></g><g
         id="g88"
         transform="matrix(0.35780676,0,0,0.35780676,295.18341,35.526857)"><path
           d="m 89.95,391.32 c 3.5235,0 6.3546,2.8311 6.3546,6.3546 0,3.5234 -2.8311,6.353 -6.3546,6.353 -3.5235,0 -6.353,-2.8296 -6.353,-6.353 0,-3.5234 2.8296,-6.3546 6.353,-6.3546 z"
           fill="#ffffff"
           id="path83" /><path
           d="m 89.95,390.33 c -4.0423,0 -7.3402,3.2991 -7.3402,7.3415 0,4.0424 3.2978,7.3402 7.3402,7.3402 4.0424,0 7.3415,-3.2978 7.3415,-7.3402 0,-4.0424 -3.2991,-7.3415 -7.3415,-7.3415 z m 0,2.0158 c 2.953,0 5.3257,2.3727 5.3257,5.3257 0,2.9529 -2.3727,5.3244 -5.3257,5.3244 -2.9529,0 -5.3243,-2.3714 -5.3243,-5.3244 0,-2.9529 2.3714,-5.3257 5.3243,-5.3257 z m 0,1.1182 a 1.0079,1.0079 0 0 0 -1.0079,1.0079 v 2.1917 h -2.1917 a 1.0079,1.0079 0 0 0 -1.0079,1.0079 1.0079,1.0079 0 0 0 1.0079,1.0079 h 2.1917 v 2.1904 a 1.0079,1.0079 0 0 0 1.0079,1.0079 1.0079,1.0079 0 0 0 1.0079,-1.0079 v -2.1904 h 2.1917 a 1.0079,1.0079 0 0 0 1.0079,-1.0079 1.0079,1.0079 0 0 0 -1.0079,-1.0079 h -2.1917 v -2.1917 A 1.0079,1.0079 0 0 0 89.95,393.464 Z"
           id="path84" /><path
           d="m 349.35,41.28 c 3.5235,0 6.3546,2.8311 6.3546,6.3546 0,3.5234 -2.8311,6.353 -6.3546,6.353 -3.5235,0 -6.353,-2.8296 -6.353,-6.353 0,-3.5234 2.8296,-6.3546 6.353,-6.3546 z"
           fill="#ffffff"
           id="path85" /><path
           d="m 349.35,40.29 c -4.0423,0 -7.3402,3.2991 -7.3402,7.3415 0,4.0424 3.2978,7.3402 7.3402,7.3402 4.0424,0 7.3415,-3.2978 7.3415,-7.3402 0,-4.0424 -3.2991,-7.3415 -7.3415,-7.3415 z m 0,2.0158 c 2.953,0 5.3257,2.3727 5.3257,5.3257 0,2.9529 -2.3727,5.3244 -5.3257,5.3244 -2.9529,0 -5.3243,-2.3714 -5.3243,-5.3244 0,-2.9529 2.3714,-5.3257 5.3243,-5.3257 z m 0,1.1182 a 1.0079,1.0079 0 0 0 -1.0079,1.0079 v 2.1917 h -2.1917 a 1.0079,1.0079 0 0 0 -1.0079,1.0079 1.0079,1.0079 0 0 0 1.0079,1.0079 h 2.1917 v 2.1904 a 1.0079,1.0079 0 0 0 1.0079,1.0079 1.0079,1.0079 0 0 0 1.0079,-1.0079 v -2.1904 h 2.1917 a 1.0079,1.0079 0 0 0 1.0079,-1.0079 1.0079,1.0079 0 0 0 -1.0079,-1.0079 h -2.1917 V 44.4319 A 1.0079,1.0079 0 0 0 349.35,43.424 Z"
           id="path86" /><path
           d="m 349.35,243.98 c 3.5235,0 6.3546,2.8311 6.3546,6.3546 0,3.5234 -2.8311,6.353 -6.3546,6.353 -3.5235,0 -6.353,-2.8296 -6.353,-6.353 0,-3.5234 2.8296,-6.3546 6.353,-6.3546 z"
           fill="#ffffff"
           id="path87" /><path
           d="m 349.35,242.99 c -4.0423,0 -7.3402,3.2991 -7.3402,7.3415 0,4.0424 3.2978,7.3402 7.3402,7.3402 4.0424,0 7.3415,-3.2978 7.3415,-7.3402 0,-4.0424 -3.2991,-7.3415 -7.3415,-7.3415 z m 0,2.0158 c 2.953,0 5.3257,2.3727 5.3257,5.3257 0,2.9529 -2.3727,5.3244 -5.3257,5.3244 -2.9529,0 -5.3243,-2.3714 -5.3243,-5.3244 0,-2.9529 2.3714,-5.3257 5.3243,-5.3257 z m 0,1.1182 a 1.0079,1.0079 0 0 0 -1.0079,1.0079 v 2.1917 h -2.1917 a 1.0079,1.0079 0 0 0 -1.0079,1.0079 1.0079,1.0079 0 0 0 1.0079,1.0079 h 2.1917 v 2.1904 a 1.0079,1.0079 0 0 0 1.0079,1.0079 1.0079,1.0079 0 0 0 1.0079,-1.0079 v -2.1904 h 2.1917 a 1.0079,1.0079 0 0 0 1.0079,-1.0079 1.0079,1.0079 0 0 0 -1.0079,-1.0079 h -2.1917 v -2.1917 A 1.0079,1.0079 0 0 0 349.35,246.124 Z"
           id="path88" /></g><g
         font-size="7.5px"
         id="g100"
         transform="matrix(0.35780676,0,0,0.35780676,295.18341,35.526857)"
         style="font-weight:bold;font-family:'DejaVu Sans';text-anchor:middle"><text
           x="90"
           y="250"
           id="text88">Transformer Block</text><text
           x="90"
           y="261"
           id="text89">Layer L</text><text
           x="90"
           y="288"
           id="text90">Transformer Block</text><text
           x="90"
           y="300"
           id="text91">Layer ...</text><text
           x="90"
           y="327"
           id="text92">Transformer Block</text><text
           x="90"
           y="338"
           id="text93">Layer 1</text><text
           x="39"
           y="395"
           id="text94">Positional</text><text
           x="39"
           y="406"
           id="text95">Encoding</text><text
           x="90"
           y="433"
           id="text96">Input</text><text
           x="90"
           y="444"
           id="text97">Embedding</text><text
           x="270"
           y="490"
           id="text98">Head 1</text><text
           x="345"
           y="490"
           id="text99">Head ...</text><text
           x="420"
           y="490"
           id="text100">Head H</text></g><text
         x="326.67041"
         y="90.629097"
         id="text101"
         style="font-weight:bold;font-size:3.22026px;font-family:'DejaVu Sans';text-anchor:middle;stroke-width:0.357807">Softmax</text><text
         x="327.38602"
         y="114.95996"
         id="text102"
         style="font-weight:bold;font-size:3.22026px;font-family:'DejaVu Sans';text-anchor:middle;stroke-width:0.357807">LayerNorm</text><text
         x="327.38602"
         y="166.84193"
         id="text103"
         style="font-weight:bold;font-size:3.22026px;font-family:'DejaVu Sans';text-anchor:middle;stroke-width:0.357807">Dropout</text><text
         x="327.38602"
         y="102.79453"
         id="text104"
         style="font-weight:bold;font-size:3.22026px;font-family:'DejaVu Sans';text-anchor:middle;stroke-width:0.357807">Linear</text><text
         x="326.67041"
         y="79.179283"
         id="text105"
         style="font-weight:bold;font-size:3.22026px;font-family:'DejaVu Sans';text-anchor:middle;fill:#ffffff;stroke-width:0.357807">Output</text><text
         x="327.38602"
         y="206.91629"
         id="text106"
         style="font-weight:bold;font-size:3.22026px;font-family:'DejaVu Sans';text-anchor:middle;fill:#ffffff;stroke-width:0.357807">Input</text><text
         x="391.79123"
         y="181.15421"
         id="text107"
         style="font-weight:bold;font-size:3.22026px;font-family:'DejaVu Sans';text-anchor:middle;stroke-width:0.357807">Softmax</text><text
         x="391.79123"
         y="191.53061"
         id="text108"
         style="font-weight:bold;font-size:3.22026px;font-family:'DejaVu Sans';text-anchor:middle;stroke-width:0.357807">Mask</text><text
         x="391.79123"
         y="201.907"
         id="text109"
         style="font-weight:bold;font-size:3.22026px;font-family:'DejaVu Sans';text-anchor:middle;stroke-width:0.357807">Matmul</text><text
         x="391.79123"
         y="171.13562"
         id="text110"
         style="font-weight:bold;font-size:3.22026px;font-family:'DejaVu Sans';text-anchor:middle;stroke-width:0.357807">Dropout</text><text
         x="393.22247"
         y="160.75922"
         id="text111"
         style="font-weight:bold;font-size:3.22026px;font-family:'DejaVu Sans';text-anchor:middle;stroke-width:0.357807">Matmul</text><text
         x="418.62674"
         y="181.15421"
         id="text112"
         style="font-weight:bold;font-size:3.22026px;font-family:'DejaVu Sans';text-anchor:middle;stroke-width:0.357807">Softmax</text><text
         x="418.62674"
         y="191.53061"
         id="text113"
         style="font-weight:bold;font-size:3.22026px;font-family:'DejaVu Sans';text-anchor:middle;stroke-width:0.357807">Mask</text><text
         x="420.41577"
         y="226.95348"
         id="text114"
         style="font-weight:bold;font-size:3.22026px;font-family:'DejaVu Sans';text-anchor:middle;stroke-width:0.357807">LayerNorm</text><text
         x="420.41577"
         y="116.39118"
         id="text115"
         style="font-weight:bold;font-size:3.22026px;font-family:'DejaVu Sans';text-anchor:middle;stroke-width:0.357807">LayerNorm</text><text
         x="418.62674"
         y="171.13562"
         id="text116"
         style="font-weight:bold;font-size:3.22026px;font-family:'DejaVu Sans';text-anchor:middle;stroke-width:0.357807">Dropout</text><text
         x="420.41577"
         y="136.42836"
         id="text117"
         style="font-weight:bold;font-size:3.22026px;font-family:'DejaVu Sans';text-anchor:middle;stroke-width:0.357807">Dropout</text><text
         x="420.41577"
         y="64.151398"
         id="text118"
         style="font-weight:bold;font-size:3.22026px;font-family:'DejaVu Sans';text-anchor:middle;stroke-width:0.357807">Dropout</text><text
         x="420.41577"
         y="160.75922"
         id="text119"
         style="font-weight:bold;font-size:3.22026px;font-family:'DejaVu Sans';text-anchor:middle;stroke-width:0.357807">Matmul</text><text
         x="445.46225"
         y="181.15421"
         id="text120"
         style="font-weight:bold;font-size:3.22026px;font-family:'DejaVu Sans';text-anchor:middle;stroke-width:0.357807">Softmax</text><text
         x="445.46225"
         y="191.53061"
         id="text121"
         style="font-weight:bold;font-size:3.22026px;font-family:'DejaVu Sans';text-anchor:middle;stroke-width:0.357807">Mask</text><text
         x="445.46225"
         y="201.907"
         id="text122"
         style="font-weight:bold;font-size:3.22026px;font-family:'DejaVu Sans';text-anchor:middle;stroke-width:0.357807">Matmul</text><text
         x="445.46225"
         y="171.13562"
         id="text123"
         style="font-weight:bold;font-size:3.22026px;font-family:'DejaVu Sans';text-anchor:middle;stroke-width:0.357807">Dropout</text><text
         x="446.89346"
         y="160.75922"
         id="text124"
         style="font-weight:bold;font-size:3.22026px;font-family:'DejaVu Sans';text-anchor:middle;stroke-width:0.357807">Matmul</text><text
         x="420.41577"
         y="215.50366"
         id="text125"
         style="font-weight:bold;font-size:3.22026px;font-family:'DejaVu Sans';text-anchor:middle;stroke-width:0.357807">Linear</text><text
         x="420.41577"
         y="148.5938"
         id="text126"
         style="font-weight:bold;font-size:3.22026px;font-family:'DejaVu Sans';text-anchor:middle;stroke-width:0.357807">Linear</text><text
         x="420.41577"
         y="76.674637"
         id="text127"
         style="font-weight:bold;font-size:3.22026px;font-family:'DejaVu Sans';text-anchor:middle;stroke-width:0.357807">Linear</text><text
         x="420.41577"
         y="101.72111"
         id="text128"
         style="font-weight:bold;font-size:3.22026px;font-family:'DejaVu Sans';text-anchor:middle;stroke-width:0.357807">Linear</text><text
         x="420.41577"
         y="89.197868"
         id="text129"
         style="font-weight:bold;font-size:3.22026px;font-family:'DejaVu Sans';text-anchor:middle;stroke-width:0.357807">Gelu</text><text
         x="418.62674"
         y="201.907"
         id="text130"
         style="font-weight:bold;font-size:3.22026px;font-family:'DejaVu Sans';text-anchor:middle;stroke-width:0.357807">Matmul</text><text
         x="420.41577"
         y="245.91724"
         id="text131"
         style="font-weight:bold;font-size:3.22026px;font-family:'DejaVu Sans';text-anchor:middle;fill:#ffffff;stroke-width:0.357807">Transformer Block Input</text><text
         x="420.41577"
         y="41.609573"
         id="text132"
         style="font-weight:bold;font-size:3.22026px;font-family:'DejaVu Sans';text-anchor:middle;fill:#ffffff;stroke-width:0.357807">Transformer Block Output</text></g><g
       style="fill:#86a9fd;fill-opacity:1"
       id="g223"
       transform="matrix(1.4412934,0,0,1.4412934,94.54588,129.54714)"
       inkscape:export-filename="telegram.svg"
       inkscape:export-xdpi="96"
       inkscape:export-ydpi="96"><path
         d="m 22.122,10.04 c 0.006,0 0.014,0 0.022,0 0.209,0 0.403,0.065 0.562,0.177 l -0.003,-0.002 c 0.116,0.101 0.194,0.243 0.213,0.403 v 0.003 c 0.02,0.122 0.031,0.262 0.031,0.405 0,0.065 -0.002,0.129 -0.007,0.193 V 11.21 c -0.225,2.369 -1.201,8.114 -1.697,10.766 -0.21,1.123 -0.623,1.499 -1.023,1.535 -0.869,0.081 -1.529,-0.574 -2.371,-1.126 -1.318,-0.865 -2.063,-1.403 -3.342,-2.246 -1.479,-0.973 -0.52,-1.51 0.322,-2.384 0.221,-0.23 4.052,-3.715 4.127,-4.031 0.004,-0.019 0.006,-0.04 0.006,-0.062 0,-0.078 -0.029,-0.149 -0.076,-0.203 v 0 c -0.052,-0.034 -0.117,-0.053 -0.185,-0.053 -0.045,0 -0.088,0.009 -0.128,0.024 l 0.002,-10e-4 q -0.198,0.045 -6.316,4.174 c -0.445,0.351 -1.007,0.573 -1.619,0.599 H 10.634 C 9.767,18.097 8.98,17.904 8.233,17.629 l 0.074,0.024 C 7.369,17.347 6.624,17.186 6.688,16.668 q 0.051,-0.404 1.114,-0.827 6.548,-2.853 8.733,-3.761 c 1.607,-0.853 3.47,-1.555 5.429,-2.01 l 0.157,-0.031 z M 15.93,1.025 C 7.628,1.045 0.905,7.78 0.905,16.085 c 0,8.317 6.742,15.06 15.06,15.06 8.318,0 15.06,-6.742 15.06,-15.06 0,-8.305 -6.723,-15.04 -15.023,-15.06 H 16 q -0.035,0 -0.07,0 z"
         id="path1-3"
         style="fill:#86a9fd;fill-opacity:1" /></g><path
       d="m 194.26576,161.67577 c -0.52311,1.48077 -2.60253,2.70542 -4.26086,3.06378 -1.13522,0.24094 -2.61556,0.43195 -7.60357,-1.6351 -5.60228,-2.32101 -13.38167,-10.589 -13.38167,-16.091 0,-2.80093 1.61492,-6.06202 4.43885,-6.06202 1.35879,0 1.65833,0.0261 2.10547,1.09854 0.52311,1.26371 1.79942,4.3772 1.95136,4.69649 0.6273,1.30908 -0.63815,2.07574 -1.55631,3.21551 -0.29303,0.34317 -0.62513,0.71434 -0.25396,1.35271 0.369,0.62535 1.6453,2.70543 3.52069,4.37504 2.42238,2.15822 4.38676,2.84651 5.09003,3.13954 0.52311,0.21727 1.14824,0.16714 1.53026,-0.24094 0.48405,-0.52332 1.0853,-1.39178 1.6974,-2.2472 0.43195,-0.61233 0.98111,-0.6883 1.55631,-0.47124 0.38854,0.13458 5.32663,2.42759 5.535,2.79442 0.15411,0.26719 0.15411,1.53069 -0.369,3.01147 m -12.63065,-30.65131 h -0.0109 v 0 c -11.96645,0 -21.69937,9.73574 -21.69937,21.70588 0,4.74643 1.53027,9.14968 4.13281,12.72138 l -2.70456,8.06613 8.34157,-2.66636 c 3.4317,2.27109 7.5276,3.58473 11.9404,3.58473 11.96645,0 21.70153,-9.73596 21.70153,-21.70588 0,-11.97014 -9.73508,-21.70588 -21.70153,-21.70588"
       id="whatsapp-[#128]"
       style="fill:#86a9fd;fill-rule:evenodd;stroke:none;stroke-width:2.17058;fill-opacity:1"
       inkscape:export-filename="whatsapp.svg"
       inkscape:export-xdpi="96"
       inkscape:export-ydpi="96" /><g
       id="g225"
       transform="matrix(0.22387191,0,0,0.22387191,225.26988,40.819357)"
       style="fill:#86a9fd;fill-opacity:1"
       inkscape:export-filename="signal.svg"
       inkscape:export-xdpi="96"
       inkscape:export-ydpi="96"><g
         id="g224"
         transform="matrix(4.4097222,0,0,4.4097222,-873.24182,393.99793)"
         style="stroke:#ffffff;fill:#86a9fd;fill-opacity:1"><path
           style="fill:#86a9fd;stroke:none;stroke-linejoin:round;fill-opacity:1"
           d="m 23.998047,2 c -1.109491,0.00297 -2.215686,0.088592 -3.3125,0.2558594 l 0.15039,0.9882812 C 21.882458,3.0845435 22.939435,3.0030293 23.998047,3 c 1.070105,0.00286 2.139163,0.084293 3.197265,0.2441406 L 27.34375,2.2558594 C 26.237088,2.0886762 25.121168,2.0029909 24.001953,2 a 0.50005,0.50005 0 0 0 -0.0039,0 z m 5.210937,0.6152344 -0.238281,0.9707031 c 2.09113,0.5158898 4.091185,1.3487065 5.929688,2.4707031 L 35.419922,5.203125 C 33.494166,4.0278793 31.399358,3.1556078 29.208984,2.6152344 Z M 18.804687,2.6328125 C 16.604656,3.1571849 14.50092,4.0250503 12.570313,5.203125 l 0.519531,0.8535156 C 14.93095,4.9331803 16.937116,4.1055318 19.035156,3.6054688 Z M 11.003906,6.2382812 C 9.191373,7.5770801 7.5926897,9.1847173 6.265625,11.005859 L 7.0742187,11.59375 C 8.3413186,9.8548981 9.8670242,8.3212725 11.597656,7.0429687 Z m 26.009766,0.00781 -0.587891,0.8085938 c 1.743947,1.2671511 3.279887,2.7997946 4.550781,4.5410155 l 0.806641,-0.589844 C 40.450885,9.1804839 38.841905,7.5744872 37.013672,6.2460937 Z m 5.794922,6.3261723 -0.857422,0.515625 c 1.114469,1.843864 1.942313,3.848334 2.453125,5.941406 L 45.375,18.791016 c -0.534906,-2.191799 -1.399369,-4.287914 -2.566406,-6.21875 z M 5.2929687,12.587891 C 4.1162199,14.509043 3.247299,16.601939 2.7148438,18.791016 l 0.9707031,0.236328 C 4.1934546,16.939189 5.0239866,14.94391 6.1464844,13.111328 Z M 2.2558594,20.646484 C 2.0887132,21.756428 2.0030061,22.875593 2,23.998047 a 0.50005,0.50005 0 0 0 0,0.0098 c 0.016646,1.123421 0.1161497,2.244602 0.296875,3.353516 L 3.2832031,27.199219 C 3.1103492,26.138602 3.0159208,25.066679 3,23.992187 c 0.00334,-1.070242 0.084768,-2.138941 0.2441406,-3.197265 z m 43.4882816,0.04102 -0.988282,0.146484 c 0.155143,1.049883 0.236387,2.108667 0.244141,3.169922 -0.0032,1.071547 -0.08457,2.141563 -0.244141,3.201172 l 0.988282,0.148438 C 45.911287,26.243572 45.996994,25.124407 46,24.001953 A 0.50005,0.50005 0 0 0 46,24 a 0.50005,0.50005 0 0 0 0,-0.002 0.50005,0.50005 0 0 0 0,-0.002 c -0.0081,-1.107741 -0.09392,-2.212724 -0.255859,-3.308594 z m -0.94336,7.931641 a 0.50005,0.50005 0 0 0 -0.373047,0.298828 l -2.539062,6.080078 0.576172,0.240234 0.332031,0.203125 c 1.161674,-1.899982 2.016694,-3.969229 2.550781,-6.130859 6.93e-4,-0.0028 0.0032,-0.005 0.0039,-0.0078 0.0062,-0.02526 0.0173,-0.04893 0.02344,-0.07422 a 0.50005,0.50005 0 0 0 -0.574219,-0.609375 z m -3.84375,7.785156 c -1.276768,1.737572 -2.812423,3.269936 -4.552734,4.542969 l 0.591797,0.80664 c 1.82267,-1.333278 3.430388,-2.938011 4.767578,-4.757812 z m -6.037109,5.539062 c -1.837425,1.123445 -3.840708,1.951264 -5.935547,2.451172 l 0.232422,0.972656 c 2.197022,-0.524292 4.297557,-1.392068 6.224609,-2.570312 z m -14.105469,2.8125 -0.148437,0.988282 C 21.769323,45.910939 22.882208,45.996618 23.998047,46 a 0.50005,0.50005 0 0 0 0.0039,0 c 1.135316,-0.0034 2.267607,-0.08917 3.390625,-0.255859 L 27.246094,44.755859 C 26.171988,44.915284 25.087817,44.996588 24.001953,45 c -1.066813,-0.0032 -2.132669,-0.08467 -3.1875,-0.244141 z"
           id="path1-1" /><path
           style="fill:#86a9fd;stroke:none;stroke-linejoin:round;fill-opacity:1"
           d="m 13.759766,42.431641 -2.240235,0.511718 0.220703,0.97461 2.097657,-0.476563 c 1.55655,0.830329 3.199314,1.489041 4.912109,1.914063 l 0.240234,-0.970703 c -1.701805,-0.422295 -3.342493,-1.062925 -4.880859,-1.904297 a 0.50005,0.50005 0 0 0 -0.349609,-0.04883 z"
           id="path2-8" /><path
           style="fill:#86a9fd;stroke:none;stroke-linejoin:round;fill-opacity:1"
           d="m 3.6035156,29.052734 -0.9667968,0.253907 c 0.4480534,1.711083 1.1212686,3.352047 1.9609374,4.908203 l -0.4746093,2.052734 0.9746093,0.224609 0.5097657,-2.199218 A 0.50005,0.50005 0 0 0 5.5566406,33.9375 C 4.7050389,32.39668 4.0494728,30.755812 3.6035156,29.052734 Z"
           id="path3-7" /><path
           style="fill:#86a9fd;stroke:none;stroke-linejoin:round;fill-opacity:1"
           d="m 3.7734375,37.990234 -1,4.080078 0.00195,-0.002 c -0.1100433,0.440646 -0.1100433,0.903104 0,1.34375 a 0.50005,0.50005 0 0 0 0.00195,0.0059 c 0.3771416,1.421624 1.8427432,2.280842 3.2675781,1.916015 l 4.0742191,-0.998047 -0.2382816,-0.970703 -4.0800782,1 a 0.50005,0.50005 0 0 0 -0.00391,0 c -0.9042485,0.231532 -1.8133875,-0.300913 -2.0527344,-1.203125 -0.068889,-0.279846 -0.069843,-0.57189 0,-0.851562 a 0.50005,0.50005 0 0 0 0.00195,-0.002 l 0.9999999,-4.080078 z"
           id="path4-9" /><path
           style="fill:#86a9fd;stroke:none;stroke-linejoin:round;fill-opacity:1"
           d="M 23.998047,5.9101562 C 9.8691416,5.9368127 1.2811176,21.473768 8.6464844,33.455078 l -1.6132813,6.941406 a 0.50005,0.50005 0 0 0 0.5976563,0.601563 L 14.626953,39.394531 C 24.787287,45.630282 38.160648,40.493345 41.462891,28.992187 44.787522,17.413052 36.046559,5.8593379 24,5.9101562 Z m 0.002,1 a 0.50005,0.50005 0 0 0 0.002,0 c 11.407557,-0.04934 19.648183,10.8420478 16.5,21.8066408 -3.148182,10.964592 -15.910922,15.824119 -25.554687,9.730469 a 0.50005,0.50005 0 0 0 -0.378907,-0.06445 L 8.1894531,39.84375 9.65625,33.523437 A 0.50005,0.50005 0 0 0 9.5917969,33.142578 C 2.3800659,21.753027 10.519259,6.9341761 24,6.9101562 Z"
           id="path5-2" /></g><g
         id="path224"
         style="fill:#86a9fd;fill-opacity:1"><path
           style="fill:#86a9fd;stroke-linecap:round;stroke-linejoin:round;fill-opacity:1"
           d="m -760.85236,422.51336 -27.813,2.75979 -20.98656,9.5931 -19.68506,18.44215 c 0,0 -9.47613,16.496 -9.94645,17.70004 -0.4703,1.20401 -4.64987,16.88589 -4.81095,18.113 -0.1611,1.22711 -0.19301,19.92945 -0.19301,19.92945 0,0 2.55577,12.64531 3.09562,14.28033 0.53983,1.63499 4.32597,10.8516 5.20962,12.49045 0.88363,1.63888 2.76845,7.2652 2.61798,7.91263 -0.15045,0.64741 -3.07851,13.24697 -3.07851,13.24697 l -3.63802,15.6545 9.73182,-2.22906 17.73791,-4.06289 12.0532,3.45392 19.59284,6.34566 28.78431,-0.18891 20.84089,-7.27795 17.72806,-12.64523 c 0,0 13.13604,-16.40877 13.62882,-17.27065 0.49276,-0.8619 8.1843,-20.2112 8.1843,-20.2112 0,0 2.28815,-20.12963 2.26084,-20.9373 -0.0273,-0.80769 -4.12871,-22.86529 -4.37541,-23.55511 -0.2467,-0.68985 -13.85949,-24.22755 -13.85949,-24.22755 0,0 -11.98853,-11.53615 -13.68139,-12.73292 -1.69288,-1.19676 -14.92879,-8.62332 -17.67641,-9.62525 -2.74759,-1.00192 -15.98163,-4.30575 -17.37315,-4.48432 -1.39153,-0.17859 -4.3488,-0.47365 -4.3488,-0.47365 z"
           id="path227" /><path
           style="fill:#86a9fd;stroke-linecap:round;stroke-linejoin:round;fill-opacity:1"
           d="m -760.91797,421.85547 -27.8125,2.75976 a 0.66152613,0.66152613 0 0 0 -0.20898,0.0566 l -20.98828,9.59375 a 0.66152613,0.66152613 0 0 0 -0.17579,0.11719 l -19.68554,18.44336 a 0.66152613,0.66152613 0 0 0 -0.1211,0.15235 c 0,0 -2.36997,4.12602 -4.79882,8.40234 -1.21443,2.13816 -2.44408,4.31418 -3.40039,6.0332 -0.47816,0.85952 -0.88844,1.60436 -1.19532,2.17578 -0.30688,0.57143 -0.49309,0.91504 -0.5957,1.17774 -0.17382,0.445 -0.48581,1.56637 -0.94727,3.22851 -0.46145,1.66215 -1.0333,3.77659 -1.5957,5.89063 -0.5624,2.11404 -1.11626,4.2272 -1.53906,5.89258 -0.2114,0.83268 -0.38957,1.55337 -0.52149,2.10742 -0.13192,0.55405 -0.21376,0.90218 -0.24609,1.14844 -0.0341,0.25949 -0.0441,0.64356 -0.0606,1.27734 -0.0164,0.63378 -0.0301,1.46713 -0.043,2.43164 -0.0257,1.92901 -0.0445,4.38346 -0.0586,6.79883 -0.0281,4.83073 -0.0371,9.50586 -0.0371,9.50586 a 0.66152613,0.66152613 0 0 0 0.0137,0.13281 c 0,0 0.63865,3.16253 1.34571,6.53125 0.35352,1.68436 0.72443,3.42161 1.04101,4.8418 0.31658,1.42018 0.56268,2.48212 0.72852,2.98437 0.59649,1.80659 4.25513,10.73972 5.25586,12.59571 0.38499,0.71404 1.09601,2.55184 1.65234,4.2246 0.27817,0.83639 0.52382,1.6411 0.6875,2.26368 0.0818,0.31129 0.14209,0.57773 0.17578,0.76757 0.0337,0.18985 0.001,0.36361 0.041,0.19336 -0.15044,0.64736 -3.08008,13.24805 -3.08008,13.24805 l -3.63672,15.6543 a 0.66152613,0.66152613 0 0 0 0.79102,0.79492 l 9.73242,-2.23047 17.57226,-4.02344 11.87891,3.40235 19.58203,6.34375 a 0.66152613,0.66152613 0 0 0 0.20703,0.0312 l 28.78516,-0.18946 a 0.66152613,0.66152613 0 0 0 0.21289,-0.0371 l 20.8418,-7.27734 a 0.66152613,0.66152613 0 0 0 0.16601,-0.0859 l 17.72656,-12.64453 a 0.66152613,0.66152613 0 0 0 0.13282,-0.125 c 0,0 3.28429,-4.10332 6.63086,-8.31445 1.67328,-2.10557 3.36347,-4.23865 4.66601,-5.90039 0.65127,-0.83087 1.20404,-1.54318 1.61328,-2.07813 0.20463,-0.26747 0.37448,-0.49083 0.50196,-0.66406 0.12747,-0.17322 0.19968,-0.26602 0.27539,-0.39844 0.14223,-0.24878 0.26818,-0.57192 0.52734,-1.1875 0.25916,-0.61558 0.60042,-1.44527 0.99609,-2.41406 0.79135,-1.93759 1.80047,-4.43697 2.79297,-6.91016 1.98501,-4.94637 3.90821,-9.78515 3.90821,-9.78515 a 0.66152613,0.66152613 0 0 0 0.043,-0.16797 c 0,0 0.57186,-5.03337 1.14062,-10.16797 0.28438,-2.5673 0.56838,-5.16105 0.7793,-7.16406 0.10545,-1.00151 0.19162,-1.85465 0.25195,-2.48633 0.0302,-0.31584 0.0546,-0.57553 0.0703,-0.77344 0.0158,-0.19791 0.0266,-0.29174 0.0215,-0.44336 -0.006,-0.16479 -0.0261,-0.25677 -0.0586,-0.46875 -0.0325,-0.21197 -0.0768,-0.49119 -0.13476,-0.83398 -0.11589,-0.68558 -0.28025,-1.61754 -0.47656,-2.71484 -0.39263,-2.19462 -0.91531,-5.05045 -1.44532,-7.90235 -0.53,-2.8519 -1.06821,-5.70103 -1.48828,-7.88086 -0.21003,-1.08991 -0.39078,-2.01109 -0.52734,-2.68554 -0.0683,-0.33723 -0.12505,-0.61288 -0.16992,-0.81836 -0.0449,-0.20549 -0.0527,-0.28175 -0.11329,-0.45118 -0.0774,-0.21639 -0.12025,-0.26103 -0.23632,-0.47656 -0.11608,-0.21552 -0.27582,-0.50495 -0.47461,-0.86133 -0.39758,-0.71275 -0.94954,-1.6891 -1.60547,-2.84179 -1.31187,-2.30539 -3.03663,-5.31305 -4.75391,-8.29883 -3.43455,-5.97156 -6.83789,-11.85742 -6.83789,-11.85742 a 0.66152613,0.66152613 0 0 0 -0.11523,-0.14453 c 0,0 -2.99759,-2.88573 -6.20899,-5.92188 -1.6057,-1.51807 -3.26454,-3.07434 -4.63086,-4.32812 -1.36631,-1.25379 -2.38623,-2.17096 -2.91797,-2.54688 -1.96665,-1.3903 -14.73838,-8.57892 -17.83203,-9.70703 -1.47507,-0.53789 -5.42564,-1.5952 -9.25781,-2.57031 -1.91608,-0.48756 -3.78924,-0.94912 -5.27344,-1.30078 -1.4842,-0.35166 -2.51237,-0.58787 -2.98437,-0.64844 -1.41765,-0.18194 -4.36719,-0.47461 -4.36719,-0.47461 a 0.66152613,0.66152613 0 0 0 -0.13086,0 z m 0.0625,1.32226 c 0.0833,0.008 2.92185,0.29214 4.26758,0.46485 0.22376,0.0287 1.37325,0.2737 2.84766,0.62304 1.47441,0.34935 3.34214,0.80897 5.25195,1.29493 3.81963,0.97192 7.85834,2.06722 9.13086,2.53125 2.40159,0.87575 16.10238,8.5417 17.52148,9.54492 0.31469,0.22247 1.42946,1.19557 2.78711,2.4414 1.35765,1.24584 3.0122,2.7989 4.61524,4.31446 3.17093,2.99789 6.07014,5.78743 6.13476,5.84961 0.0465,0.0804 3.38121,5.84294 6.79102,11.77148 1.71676,2.98488 3.44008,5.99102 4.75,8.29297 0.65495,1.15098 1.20747,2.12748 1.60156,2.83398 0.19705,0.35326 0.35441,0.6387 0.46484,0.84375 0.11044,0.20506 0.2028,0.42509 0.15625,0.29493 -0.0298,-0.0832 0.0221,0.0953 0.0645,0.28906 0.0423,0.19381 0.10044,0.46337 0.16797,0.79687 0.13505,0.66702 0.31384,1.58817 0.52343,2.67579 0.41919,2.17522 0.95674,5.0214 1.48633,7.87109 0.5296,2.84969 1.05158,5.70267 1.44336,7.89258 0.19589,1.09495 0.36001,2.02318 0.47461,2.70117 0.0573,0.33899 0.10211,0.6162 0.13281,0.81641 0.0307,0.2002 0.0451,0.37633 0.043,0.3125 -0.002,-0.0507 -0.005,0.10727 -0.0195,0.29296 -0.0148,0.1857 -0.0366,0.44203 -0.0664,0.75391 -0.0596,0.62376 -0.14673,1.47343 -0.25195,2.47266 -0.21043,1.99844 -0.4931,4.59018 -0.77734,7.15625 -0.56325,5.08484 -1.12047,9.97884 -1.13086,10.07031 -0.0297,0.0747 -1.90656,4.79997 -3.875,9.70508 -0.99198,2.47187 -1.99966,4.96953 -2.78906,6.90234 -0.39471,0.96641 -0.73445,1.79283 -0.99024,2.40039 -0.25579,0.60756 -0.47607,1.07628 -0.45703,1.04297 0.0141,-0.0247 -0.0743,0.11161 -0.19336,0.27344 -0.11909,0.16182 -0.28265,0.37889 -0.48437,0.64258 -0.40346,0.52737 -0.9579,1.23775 -1.60743,2.0664 -1.29906,1.65731 -2.98588,3.79017 -4.6582,5.89453 -3.31624,4.17297 -6.51719,8.16948 -6.57227,8.23828 l -17.57421,12.53711 -20.64844,7.20899 -28.56836,0.1875 -19.49024,-6.3125 a 0.66152613,0.66152613 0 0 0 -0.0215,-0.006 l -12.05469,-3.45508 a 0.66152613,0.66152613 0 0 0 -0.32812,-0.008 l -17.73828,4.0625 -8.69922,1.99219 3.39648,-14.62305 c 0,0 2.92767,-12.59863 3.07813,-13.24609 0.0772,-0.33211 0.0186,-0.47644 -0.0254,-0.72461 -0.044,-0.24817 -0.11172,-0.54022 -0.19922,-0.87305 -0.17501,-0.66566 -0.42821,-1.48972 -0.71289,-2.3457 -0.56937,-1.71197 -1.24355,-3.50877 -1.74219,-4.4336 -0.76657,-1.42171 -4.68089,-10.92137 -5.16406,-12.38476 -0.1041,-0.31526 -0.3789,-1.44677 -0.69336,-2.85743 -0.31446,-1.41065 -0.68422,-3.14287 -1.03711,-4.82421 -0.6984,-3.32748 -1.31691,-6.38798 -1.33008,-6.45313 1.1e-4,-0.0628 0.007,-4.64303 0.0352,-9.4375 0.014,-2.41361 0.033,-4.86626 0.0586,-6.78906 0.0128,-0.9614 0.0268,-1.79019 0.043,-2.41406 0.0162,-0.62388 0.0426,-1.09334 0.0488,-1.14063 0.008,-0.0605 0.0933,-0.47054 0.22265,-1.01367 0.12932,-0.54313 0.30715,-1.25903 0.51758,-2.08789 0.42087,-1.65773 0.97179,-3.76858 1.5332,-5.87891 0.56142,-2.11032 1.13228,-4.21981 1.5918,-5.875 0.45952,-1.65518 0.84492,-2.94455 0.90625,-3.10156 0.015,-0.0383 0.22793,-0.474 0.5293,-1.03516 0.30137,-0.56116 0.70917,-1.30189 1.18555,-2.1582 0.95274,-1.71261 2.18113,-3.88709 3.39453,-6.02344 2.40265,-4.23018 4.70161,-8.22971 4.74804,-8.31054 l 19.53125,-18.29883 20.78907,-9.50391 z"
           id="path228" /></g></g><path
       style="opacity:1;fill:#ffffff;fill-opacity:1;stroke:#86a9fd;stroke-width:2.64583;stroke-linecap:butt;stroke-linejoin:round;stroke-dasharray:none;stroke-opacity:1"
       d="M 111.57243,58.799478 H 235.84259"
       id="path231"
       sodipodi:nodetypes="cc" /><text
       xml:space="preserve"
       style="font-style:normal;font-variant:normal;font-weight:800;font-stretch:normal;font-size:27.9381px;line-height:1.5;font-family:'Roboto Condensed';-inkscape-font-specification:'Roboto Condensed,  Ultra-Bold';text-align:start;letter-spacing:0px;writing-mode:lr-tb;direction:ltr;text-anchor:start;opacity:1;fill:#ffffff;fill-opacity:1;stroke:none;stroke-width:6.548;stroke-linecap:butt;stroke-linejoin:round;stroke-dasharray:none;stroke-opacity:1"
       x="30.685661"
       y="256.54553"
       id="text232"><tspan
         sodipodi:role="line"
         id="tspan232"
         style="font-style:normal;font-variant:normal;font-weight:bold;font-stretch:normal;font-family:'Roboto Condensed';-inkscape-font-specification:'Roboto Condensed,  Bold';fill:#ffffff;fill-opacity:1;stroke:none;stroke-width:6.548"
         x="30.685661"
         y="256.54553">#1 - Introduction</tspan></text></g><style
     type="text/css"
     id="style1">
	.st0{fill:#000000;}
</style></svg>
