<?xml version="1.0" encoding="UTF-8" standalone="no"?>
<!-- Created with Inkscape (http://www.inkscape.org/) -->
<svg width="1200" height="300" viewBox="0 0 317.5 79.375" version="1.1" id="svg1" inkscape:version="1.4.2 (1:1.4.2+202505120737+ebf0e940d0)" sodipodi:docname="github_banner.svg"
	xmlns:inkscape="http://www.inkscape.org/namespaces/inkscape"
	xmlns:sodipodi="http://sodipodi.sourceforge.net/DTD/sodipodi-0.dtd"
	xmlns="http://www.w3.org/2000/svg"
	xmlns:svg="http://www.w3.org/2000/svg">
	<sodipodi:namedview id="namedview1" pagecolor="#ffffff" bordercolor="#000000" borderopacity="0.25" inkscape:showpageshadow="2" inkscape:pageopacity="0.0" inkscape:pagecheckerboard="0" inkscape:deskcolor="#d1d1d1" inkscape:document-units="px" inkscape:zoom="0.99375" inkscape:cx="519.74843" inkscape:cy="172.57862" inkscape:window-width="2560" inkscape:window-height="1371" inkscape:window-x="0" inkscape:window-y="32" inkscape:window-maximized="1" inkscape:current-layer="layer1" showguides="true" />
	<defs id="defs1">
		<inkscape:path-effect effect="bspline" id="path-effect16" is_visible="true" lpeversion="1.3" weight="33.333333" steps="2" helper_size="0" apply_no_weight="true" apply_with_weight="true" only_selected="false" uniform="false" />
		<inkscape:path-effect effect="bspline" id="path-effect14" is_visible="true" lpeversion="1.3" weight="33.333333" steps="2" helper_size="0" apply_no_weight="true" apply_with_weight="true" only_selected="false" uniform="false" />
		<inkscape:path-effect effect="bspline" id="path-effect12" is_visible="true" lpeversion="1.3" weight="33.333333" steps="2" helper_size="0" apply_no_weight="true" apply_with_weight="true" only_selected="false" uniform="false" />
		<inkscape:path-effect effect="bspline" id="path-effect12-3" is_visible="true" lpeversion="1.3" weight="33.333333" steps="2" helper_size="0" apply_no_weight="true" apply_with_weight="true" only_selected="false" uniform="false" />
		<inkscape:path-effect effect="bspline" id="path-effect14-3" is_visible="true" lpeversion="1.3" weight="33.333333" steps="2" helper_size="0" apply_no_weight="true" apply_with_weight="true" only_selected="false" uniform="false" />
		<inkscape:path-effect effect="bspline" id="path-effect16-8" is_visible="true" lpeversion="1.3" weight="33.333333" steps="2" helper_size="0" apply_no_weight="true" apply_with_weight="true" only_selected="false" uniform="false" />
		<inkscape:path-effect effect="bspline" id="path-effect12-8" is_visible="true" lpeversion="1.3" weight="33.333333" steps="2" helper_size="0" apply_no_weight="true" apply_with_weight="true" only_selected="false" uniform="false" />
		<inkscape:path-effect effect="bspline" id="path-effect14-7" is_visible="true" lpeversion="1.3" weight="33.333333" steps="2" helper_size="0" apply_no_weight="true" apply_with_weight="true" only_selected="false" uniform="false" />
		<inkscape:path-effect effect="bspline" id="path-effect16-9" is_visible="true" lpeversion="1.3" weight="33.333333" steps="2" helper_size="0" apply_no_weight="true" apply_with_weight="true" only_selected="false" uniform="false" />
		<inkscape:path-effect effect="bspline" id="path-effect12-5" is_visible="true" lpeversion="1.3" weight="33.333333" steps="2" helper_size="0" apply_no_weight="true" apply_with_weight="true" only_selected="false" uniform="false" />
		<inkscape:path-effect effect="bspline" id="path-effect14-2" is_visible="true" lpeversion="1.3" weight="33.333333" steps="2" helper_size="0" apply_no_weight="true" apply_with_weight="true" only_selected="false" uniform="false" />
		<inkscape:path-effect effect="bspline" id="path-effect16-6" is_visible="true" lpeversion="1.3" weight="33.333333" steps="2" helper_size="0" apply_no_weight="true" apply_with_weight="true" only_selected="false" uniform="false" />
		<inkscape:path-effect effect="bspline" id="path-effect12-87" is_visible="true" lpeversion="1.3" weight="33.333333" steps="2" helper_size="0" apply_no_weight="true" apply_with_weight="true" only_selected="false" uniform="false" />
		<inkscape:path-effect effect="bspline" id="path-effect14-0" is_visible="true" lpeversion="1.3" weight="33.333333" steps="2" helper_size="0" apply_no_weight="true" apply_with_weight="true" only_selected="false" uniform="false" />
		<inkscape:path-effect effect="bspline" id="path-effect16-86" is_visible="true" lpeversion="1.3" weight="33.333333" steps="2" helper_size="0" apply_no_weight="true" apply_with_weight="true" only_selected="false" uniform="false" />
		<inkscape:path-effect effect="bspline" id="path-effect12-1" is_visible="true" lpeversion="1.3" weight="33.333333" steps="2" helper_size="0" apply_no_weight="true" apply_with_weight="true" only_selected="false" uniform="false" />
		<inkscape:path-effect effect="bspline" id="path-effect14-78" is_visible="true" lpeversion="1.3" weight="33.333333" steps="2" helper_size="0" apply_no_weight="true" apply_with_weight="true" only_selected="false" uniform="false" />
		<inkscape:path-effect effect="bspline" id="path-effect16-91" is_visible="true" lpeversion="1.3" weight="33.333333" steps="2" helper_size="0" apply_no_weight="true" apply_with_weight="true" only_selected="false" uniform="false" />
		<inkscape:path-effect effect="bspline" id="path-effect12-9" is_visible="true" lpeversion="1.3" weight="33.333333" steps="2" helper_size="0" apply_no_weight="true" apply_with_weight="true" only_selected="false" uniform="false" />
		<inkscape:path-effect effect="bspline" id="path-effect14-4" is_visible="true" lpeversion="1.3" weight="33.333333" steps="2" helper_size="0" apply_no_weight="true" apply_with_weight="true" only_selected="false" uniform="false" />
		<inkscape:path-effect effect="bspline" id="path-effect16-5" is_visible="true" lpeversion="1.3" weight="33.333333" steps="2" helper_size="0" apply_no_weight="true" apply_with_weight="true" only_selected="false" uniform="false" />
	</defs>
	<g inkscape:label="Layer 1" inkscape:groupmode="layer" id="layer1">
		<rect style="opacity:1;fill:#03071e;stroke:none;stroke-width:2.64583;stroke-linejoin:round;fill-opacity:1" id="background" width="317.5" height="79.375" x="0" y="0" inkscape:label="background" />
		<g id="stars_group" inkscape:label="stars_group">
			<path id="circle8" style="opacity:1;fill:#b5d0ff;stroke-width:0.404757;stroke-linejoin:round" d="m 59.032928,16.334833 a 0.22896528,0.22896528 0 0 1 -0.228965,0.228965 0.22896528,0.22896528 0 0 1 -0.228966,-0.228965 0.22896528,0.22896528 0 0 1 0.228966,-0.228965 0.22896528,0.22896528 0 0 1 0.228965,0.228965 z">
				<animate attributeName="opacity" values="0.4;0.9;0.3;1;0.5;0.4" dur="4.1s" repeatCount="indefinite" />
				<animateTransform attributeName="transform" type="translate" values="0,0; 0.4,-0.2; -0.3,0.5; 0.2,-0.4; 0,0" dur="22s" repeatCount="indefinite" />
			</path>
			<path id="circle9" style="opacity:1;fill:#c4e1ff;stroke-width:0.404757;stroke-linejoin:round" d="M 79.612678,35.604965 A 0.22896528,0.22896528 0 0 1 79.383713,35.83393 0.22896528,0.22896528 0 0 1 79.154747,35.604965 0.22896528,0.22896528 0 0 1 79.383713,35.376 0.22896528,0.22896528 0 0 1 79.612678,35.604965 Z">
				<animate attributeName="opacity" values="0.5;1;0.4;0.8;0.5" dur="3.5s" repeatCount="indefinite" />
				<animateTransform attributeName="transform" type="translate" values="0,0; -0.5,0.3; 0.6,-0.2; -0.4,0.4; 0,0" dur="19s" repeatCount="indefinite" />
			</path>
			<path id="circle10" style="opacity:1;fill:#f7f7a8;stroke-width:0.404757;stroke-linejoin:round" d="m 134.61675,8.8512859 a 0.22896528,0.22896528 0 0 1 -0.22896,0.2289653 0.22896528,0.22896528 0 0 1 -0.22897,-0.2289653 0.22896528,0.22896528 0 0 1 0.22897,-0.2289652 0.22896528,0.22896528 0 0 1 0.22896,0.2289652 z">
				<animate attributeName="opacity" values="0.3;0.8;0.5;1;0.4;0.7;0.3" dur="5.2s" repeatCount="indefinite" />
				<animateTransform attributeName="transform" type="translate" values="0,0; 0.6,0.1; -0.2,0.5; 0.4,-0.3; 0,0" dur="25s" repeatCount="indefinite" />
			</path>
			<path id="circle11" style="opacity:1;fill:#ffb347;stroke-width:0.404757;stroke-linejoin:round" d="m 173.15702,21.012049 a 0.22896528,0.22896528 0 0 1 -0.22897,0.228965 0.22896528,0.22896528 0 0 1 -0.22896,-0.228965 0.22896528,0.22896528 0 0 1 0.22896,-0.228966 0.22896528,0.22896528 0 0 1 0.22897,0.228966 z">
				<animate attributeName="opacity" values="0.6;0.9;0.5;1;0.7;0.6" dur="2.8s" repeatCount="indefinite" />
				<animateTransform attributeName="transform" type="translate" values="0,0; -0.2,-0.5; 0.5,0.3; -0.3,-0.2; 0,0" dur="18s" repeatCount="indefinite" />
			</path>
			<path id="circle12" style="opacity:1;fill:#b5d0ff;stroke-width:0.404757;stroke-linejoin:round" d="m 209.26513,9.5996399 a 0.22896528,0.22896528 0 0 1 -0.22897,0.2289653 0.22896528,0.22896528 0 0 1 -0.22896,-0.2289653 0.22896528,0.22896528 0 0 1 0.22896,-0.2289653 0.22896528,0.22896528 0 0 1 0.22897,0.2289653 z">
				<animate attributeName="opacity" values="0.4;1;0.6;0.9;0.4" dur="4.5s" repeatCount="indefinite" />
				<animateTransform attributeName="transform" type="translate" values="0,0; 0.3,0.6; -0.5,-0.1; 0.1,0.4; 0,0" dur="28s" repeatCount="indefinite" />
			</path>
			<path id="circle12-3" style="fill:#ffffff;stroke-width:0.404757;stroke-linejoin:round" d="m 256.25405,13.137569 a 0.22896528,0.22896528 0 0 1 -0.22896,0.228966 0.22896528,0.22896528 0 0 1 -0.22897,-0.228966 0.22896528,0.22896528 0 0 1 0.22897,-0.228965 0.22896528,0.22896528 0 0 1 0.22896,0.228965 z">
				<animate attributeName="opacity" values="0.2;0.9;0.6;1;0.3;0.2" dur="3.9s" repeatCount="indefinite" />
				<animateTransform attributeName="transform" type="translate" values="0,0; -0.1,0.7; 0.5,-0.5; -0.2,0.3; 0,0" dur="21s" repeatCount="indefinite" />
			</path>
			<path id="circle12-64" style="fill:#f7f7a8;stroke-width:0.404757;stroke-linejoin:round" d="m 237.20403,38.008404 a 0.22896528,0.22896528 0 0 1 -0.22896,0.228965 0.22896528,0.22896528 0 0 1 -0.22897,-0.228965 0.22896528,0.22896528 0 0 1 0.22897,-0.228966 0.22896528,0.22896528 0 0 1 0.22896,0.228966 z">
				<animate attributeName="opacity" values="0.5;0.8;0.4;1;0.5" dur="4.8s" repeatCount="indefinite" />
				<animateTransform attributeName="transform" type="translate" values="0,0; 0.2,-0.6; -0.4,0.2; 0.3,-0.1; 0,0" dur="26s" repeatCount="indefinite" />
			</path>
			<path id="circle12-9" style="fill:#b5d0ff;stroke-width:0.404757;stroke-linejoin:round" d="m 196.98737,66.318817 a 0.22896528,0.22896528 0 0 1 -0.22896,0.228965 0.22896528,0.22896528 0 0 1 -0.22897,-0.228965 0.22896528,0.22896528 0 0 1 0.22897,-0.228965 0.22896528,0.22896528 0 0 1 0.22896,0.228965 z">
				<animate attributeName="opacity" values="0.3;0.9;0.5;1;0.3" dur="3.3s" repeatCount="indefinite" />
				<animateTransform attributeName="transform" type="translate" values="0,0; 0.5,0.5; -0.5,-0.5; 0.2,-0.2; 0,0" dur="20s" repeatCount="indefinite" />
			</path>
			<path id="circle12-30" style="fill:#ffb347;stroke-width:0.404757;stroke-linejoin:round" d="m 142.48321,70.022987 a 0.22896528,0.22896528 0 0 1 -0.22897,0.228966 0.22896528,0.22896528 0 0 1 -0.22896,-0.228966 0.22896528,0.22896528 0 0 1 0.22896,-0.228965 0.22896528,0.22896528 0 0 1 0.22897,0.228965 z">
				<animate attributeName="opacity" values="0.5;1;0.5;0.9;0.5" dur="4.2s" repeatCount="indefinite" />
				<animateTransform attributeName="transform" type="translate" values="0,0; -0.1,0.6; 0.4,-0.3; -0.2,0.1; 0,0" dur="23s" repeatCount="indefinite" />
			</path>
			<path id="circle12-54" style="fill:#ffe9c4;stroke-width:0.404757;stroke-linejoin:round" d="m 120.78737,49.385487 a 0.22896528,0.22896528 0 0 1 -0.22897,0.228965 0.22896528,0.22896528 0 0 1 -0.22896,-0.228965 0.22896528,0.22896528 0 0 1 0.22896,-0.228966 0.22896528,0.22896528 0 0 1 0.22897,0.228966 z">
				<animate attributeName="opacity" values="0.4;0.8;0.6;1;0.4" dur="3.7s" repeatCount="indefinite" />
				<animateTransform attributeName="transform" type="translate" values="0,0; 0.3,-0.5; -0.6,0.2; 0.1,-0.3; 0,0" dur="27s" repeatCount="indefinite" />
			</path>
			<path id="circle12-69" style="fill:#ffb347;stroke-width:0.404757;stroke-linejoin:round" d="m 74.220695,70.022987 a 0.22896528,0.22896528 0 0 1 -0.228965,0.228966 0.22896528,0.22896528 0 0 1 -0.228966,-0.228966 0.22896528,0.22896528 0 0 1 0.228966,-0.228965 0.22896528,0.22896528 0 0 1 0.228965,0.228965 z">
				<animate attributeName="opacity" values="0.6;1;0.5;0.8;0.6" dur="4.0s" repeatCount="indefinite" />
				<animateTransform attributeName="transform" type="translate" values="0,0; -0.4,-0.4; 0.4,0.4; -0.2,0.2; 0,0" dur="19s" repeatCount="indefinite" />
			</path>
			<path id="circle12-7" style="fill:#ffe9c4;stroke-width:0.404757;stroke-linejoin:round" d="m 17.070699,70.816734 a 0.22896528,0.22896528 0 0 1 -0.228965,0.228966 0.22896528,0.22896528 0 0 1 -0.228965,-0.228966 0.22896528,0.22896528 0 0 1 0.228965,-0.228965 0.22896528,0.22896528 0 0 1 0.228965,0.228965 z">
				<animate attributeName="opacity" values="0.3;0.7;0.4;1;0.3" dur="5.5s" repeatCount="indefinite" />
				<animateTransform attributeName="transform" type="translate" values="0,0; 0.1,0.8; -0.7,-0.2; 0.3,0.1; 0,0" dur="29s" repeatCount="indefinite" />
			</path>
			<path id="circle12-2" style="fill:#ffd700;stroke-width:0.404757;stroke-linejoin:round" d="M 8.6040387,55.735485 A 0.22896528,0.22896528 0 0 1 8.3750734,55.96445 0.22896528,0.22896528 0 0 1 8.1461082,55.735485 0.22896528,0.22896528 0 0 1 8.3750734,55.50652 0.22896528,0.22896528 0 0 1 8.6040387,55.735485 Z">
				<animate attributeName="opacity" values="0.5;0.9;0.6;1;0.5" dur="3.1s" repeatCount="indefinite" />
				<animateTransform attributeName="transform" type="translate" values="0,0; -0.6,0.1; 0.2,-0.7; -0.1,0.4; 0,0" dur="24s" repeatCount="indefinite" />
			</path>
			<path id="circle12-80" style="fill:#f7f7a8;stroke-width:0.404757;stroke-linejoin:round" d="m 12.837368,14.195903 a 0.22896528,0.22896528 0 0 1 -0.228965,0.228965 0.22896528,0.22896528 0 0 1 -0.228965,-0.228965 0.22896528,0.22896528 0 0 1 0.228965,-0.228965 0.22896528,0.22896528 0 0 1 0.228965,0.228965 z">
				<animate attributeName="opacity" values="0.4;0.9;0.4;1;0.4" dur="4.6s" repeatCount="indefinite" />
				<animateTransform attributeName="transform" type="translate" values="0,0; 0.7,0.3; -0.3,-0.6; 0.1,0.2; 0,0" dur="22s" repeatCount="indefinite" />
			</path>
			<path id="circle12-0" style="fill:#ffb347;stroke-width:0.404757;stroke-linejoin:round" d="m 41.147789,33.510487 a 0.22896528,0.22896528 0 0 1 -0.228966,0.228965 0.22896528,0.22896528 0 0 1 -0.228965,-0.228965 0.22896528,0.22896528 0 0 1 0.228965,-0.228966 0.22896528,0.22896528 0 0 1 0.228966,0.228966 z">
				<animate attributeName="opacity" values="0.5;1;0.7;0.9;0.5" dur="3.8s" repeatCount="indefinite" />
				<animateTransform attributeName="transform" type="translate" values="0,0; -0.2,0.8; 0.6,-0.1; -0.3,0.3; 0,0" dur="26s" repeatCount="indefinite" />
			</path>
			<path id="circle12-58" style="fill:#ffe9c4;stroke-width:0.404757;stroke-linejoin:round" d="m 82.68737,16.577152 a 0.22896528,0.22896528 0 0 1 -0.228965,0.228966 0.22896528,0.22896528 0 0 1 -0.228966,-0.228966 0.22896528,0.22896528 0 0 1 0.228966,-0.228965 0.22896528,0.22896528 0 0 1 0.228965,0.228965 z">
				<animate attributeName="opacity" values="0.3;0.8;0.4;1;0.3" dur="5.1s" repeatCount="indefinite" />
				<animateTransform attributeName="transform" type="translate" values="0,0; 0.4,-0.6; -0.1,0.5; 0.3,-0.2; 0,0" dur="21s" repeatCount="indefinite" />
			</path>
			<path id="circle12-72" style="fill:#ffb347;stroke-width:0.404757;stroke-linejoin:round" d="m 91.418617,43.035484 a 0.22896528,0.22896528 0 0 1 -0.228966,0.228966 0.22896528,0.22896528 0 0 1 -0.228965,-0.228966 0.22896528,0.22896528 0 0 1 0.228965,-0.228965 0.22896528,0.22896528 0 0 1 0.228966,0.228965 z">
				<animate attributeName="opacity" values="0.6;0.9;0.7;1;0.6" dur="3.4s" repeatCount="indefinite" />
				<animateTransform attributeName="transform" type="translate" values="0,0; -0.5,-0.3; 0.2,0.6; -0.1,-0.4; 0,0" dur="25s" repeatCount="indefinite" />
			</path>
			<path id="circle12-99" style="fill:#ffb347;stroke-width:0.404757;stroke-linejoin:round" d="m 119.46445,20.016735 a 0.22896528,0.22896528 0 0 1 -0.22896,0.228965 0.22896528,0.22896528 0 0 1 -0.22897,-0.228965 0.22896528,0.22896528 0 0 1 0.22897,-0.228965 0.22896528,0.22896528 0 0 1 0.22896,0.228965 z">
				<animate attributeName="opacity" values="0.4;1;0.5;0.8;0.4" dur="4.3s" repeatCount="indefinite" />
				<animateTransform attributeName="transform" type="translate" values="0,0; 0.1,0.9; -0.8,-0.1; 0.4,0.3; 0,0" dur="20s" repeatCount="indefinite" />
			</path>
			<path id="circle12-11" style="fill:#ffffff;stroke-width:0.404757;stroke-linejoin:round" d="m 151.47904,22.662569 a 0.22896528,0.22896528 0 0 1 -0.22896,0.228965 0.22896528,0.22896528 0 0 1 -0.22897,-0.228965 0.22896528,0.22896528 0 0 1 0.22897,-0.228965 0.22896528,0.22896528 0 0 1 0.22896,0.228965 z">
				<animate attributeName="opacity" values="0.2;0.8;0.5;1;0.2" dur="3.6s" repeatCount="indefinite" />
				<animateTransform attributeName="transform" type="translate" values="0,0; -0.3,0.5; 0.7,-0.2; -0.2,0.1; 0,0" dur="23s" repeatCount="indefinite" />
			</path>
			<path id="circle12-39" style="fill:#ffb347;stroke-width:0.404757;stroke-linejoin:round" d="m 175.02695,4.4063196 a 0.22896528,0.22896528 0 0 1 -0.22896,0.2289653 0.22896528,0.22896528 0 0 1 -0.22897,-0.2289653 0.22896528,0.22896528 0 0 1 0.22897,-0.2289653 0.22896528,0.22896528 0 0 1 0.22896,0.2289653 z">
				<animate attributeName="opacity" values="0.5;0.9;0.4;1;0.5" dur="4.9s" repeatCount="indefinite" />
				<animateTransform attributeName="transform" type="translate" values="0,0; 0.6,-0.4; -0.4,0.6; 0.1,-0.3; 0,0" dur="27s" repeatCount="indefinite" />
			</path>
			<path id="circle12-33" style="fill:#b5d0ff;stroke-width:0.404757;stroke-linejoin:round" d="m 197.51653,19.752153 a 0.22896528,0.22896528 0 0 1 -0.22896,0.228966 0.22896528,0.22896528 0 0 1 -0.22897,-0.228966 0.22896528,0.22896528 0 0 1 0.22897,-0.228965 0.22896528,0.22896528 0 0 1 0.22896,0.228965 z">
				<animate attributeName="opacity" values="0.4;0.8;0.6;1;0.4" dur="3.2s" repeatCount="indefinite" />
				<animateTransform attributeName="transform" type="translate" values="0,0; -0.1,-0.8; 0.8,0.1; -0.4,-0.3; 0,0" dur="18s" repeatCount="indefinite" />
			</path>
			<path id="circle12-640" style="fill:#ffb347;stroke-width:0.404757;stroke-linejoin:round" d="m 292.23736,43.300072 a 0.22896528,0.22896528 0 0 1 -0.22897,0.228965 0.22896528,0.22896528 0 0 1 -0.22896,-0.228965 0.22896528,0.22896528 0 0 1 0.22896,-0.228966 0.22896528,0.22896528 0 0 1 0.22897,0.228966 z">
				<animate attributeName="opacity" values="0.5;1;0.5;0.9;0.5" dur="5.0s" repeatCount="indefinite" />
				<animateTransform attributeName="transform" type="translate" values="0,0; 0.2,0.7; -0.6,-0.2; 0.3,0.4; 0,0" dur="24s" repeatCount="indefinite" />
			</path>
			<path id="circle12-67" style="fill:#ffffff;stroke-width:0.404757;stroke-linejoin:round" d="m 151.47904,50.179237 a 0.22896528,0.22896528 0 0 1 -0.22896,0.228966 0.22896528,0.22896528 0 0 1 -0.22897,-0.228966 0.22896528,0.22896528 0 0 1 0.22897,-0.228965 0.22896528,0.22896528 0 0 1 0.22896,0.228965 z">
				<animate attributeName="opacity" values="0.3;0.9;0.5;1;0.3" dur="4.4s" repeatCount="indefinite" />
				<animateTransform attributeName="transform" type="translate" values="0,0; -0.5,0.1; 0.1,-0.5; -0.2,0.3; 0,0" dur="29s" repeatCount="indefinite" />
			</path>
			<path id="circle12-728" style="fill:#ffe9c4;stroke-width:0.404757;stroke-linejoin:round" d="m 159.41654,64.466736 a 0.22896528,0.22896528 0 0 1 -0.22896,0.228965 0.22896528,0.22896528 0 0 1 -0.22897,-0.228965 0.22896528,0.22896528 0 0 1 0.22897,-0.228965 0.22896528,0.22896528 0 0 1 0.22896,0.228965 z">
				<animate attributeName="opacity" values="0.4;0.8;0.6;1;0.4" dur="3.0s" repeatCount="indefinite" />
				<animateTransform attributeName="transform" type="translate" values="0,0; 0.8,-0.3; -0.3,0.8; 0.1,-0.2; 0,0" dur="19s" repeatCount="indefinite" />
			</path>
			<path id="circle12-02" style="fill:#ffb347;stroke-width:0.404757;stroke-linejoin:round" d="m 180.05404,70.552155 a 0.22896528,0.22896528 0 0 1 -0.22897,0.228965 0.22896528,0.22896528 0 0 1 -0.22896,-0.228965 0.22896528,0.22896528 0 0 1 0.22896,-0.228966 0.22896528,0.22896528 0 0 1 0.22897,0.228966 z">
				<animate attributeName="opacity" values="0.6;1;0.5;0.9;0.6" dur="4.7s" repeatCount="indefinite" />
				<animateTransform attributeName="transform" type="translate" values="0,0; -0.6,-0.6; 0.6,0.6; -0.3,-0.3; 0,0" dur="23s" repeatCount="indefinite" />
			</path>
			<path id="circle12-4" style="fill:#ffffff;stroke-width:0.404757;stroke-linejoin:round" d="m 299.38113,62.350071 a 0.22896528,0.22896528 0 0 1 -0.22897,0.228965 0.22896528,0.22896528 0 0 1 -0.22896,-0.228965 0.22896528,0.22896528 0 0 1 0.22896,-0.228965 0.22896528,0.22896528 0 0 1 0.22897,0.228965 z">
				<animate attributeName="opacity" values="0.2;0.9;0.6;1;0.2" dur="5.3s" repeatCount="indefinite" />
				<animateTransform attributeName="transform" type="translate" values="0,0; 0.3,0.9; -0.9,-0.3; 0.4,0.1; 0,0" dur="28s" repeatCount="indefinite" />
			</path>
			<path id="circle12-587" style="fill:#ffb347;stroke-width:0.404757;stroke-linejoin:round" d="m 238.79153,61.55632 a 0.22896528,0.22896528 0 0 1 -0.22897,0.228965 0.22896528,0.22896528 0 0 1 -0.22896,-0.228965 0.22896528,0.22896528 0 0 1 0.22896,-0.228965 0.22896528,0.22896528 0 0 1 0.22897,0.228965 z">
				<animate attributeName="opacity" values="0.5;0.8;0.4;1;0.5" dur="3.6s" repeatCount="indefinite" />
				<animateTransform attributeName="transform" type="translate" values="0,0; -0.7,0.4; 0.4,-0.7; -0.2,0.3; 0,0" dur="20s" repeatCount="indefinite" />
			</path>
			<path id="circle12-422" style="fill:#ffffff;stroke-width:0.404757;stroke-linejoin:round" d="m 274.24569,27.160486 a 0.22896528,0.22896528 0 0 1 -0.22897,0.228966 0.22896528,0.22896528 0 0 1 -0.22896,-0.228966 0.22896528,0.22896528 0 0 1 0.22896,-0.228965 0.22896528,0.22896528 0 0 1 0.22897,0.228965 z">
				<animate attributeName="opacity" values="0.4;1;0.6;0.9;0.4" dur="4.1s" repeatCount="indefinite" />
				<animateTransform attributeName="transform" type="translate" values="0,0; 0.1,-0.9; 0.9,0.1; -0.5,-0.2; 0,0" dur="25s" repeatCount="indefinite" />
			</path>
			<path id="circle12-93" style="fill:#ffb347;stroke-width:0.404757;stroke-linejoin:round" d="m 236.41029,9.1688194 a 0.22896528,0.22896528 0 0 1 -0.22897,0.2289653 0.22896528,0.22896528 0 0 1 -0.22897,-0.2289653 0.22896528,0.22896528 0 0 1 0.22897,-0.2289653 0.22896528,0.22896528 0 0 1 0.22897,0.2289653 z">
				<animate attributeName="opacity" values="0.3;0.8;0.5;1;0.3" dur="3.4s" repeatCount="indefinite" />
				<animateTransform attributeName="transform" type="translate" values="0,0; -0.4,0.8; 0.5,-0.4; -0.1,0.2; 0,0" dur="22s" repeatCount="indefinite" />
			</path>
			<path id="circle12-294" style="fill:#f7f7a8;stroke-width:0.404757;stroke-linejoin:round" d="m 130.84153,33.510487 a 0.22896528,0.22896528 0 0 1 -0.22897,0.228965 0.22896528,0.22896528 0 0 1 -0.22896,-0.228965 0.22896528,0.22896528 0 0 1 0.22896,-0.228966 0.22896528,0.22896528 0 0 1 0.22897,0.228966 z">
				<animate attributeName="opacity" values="0.5;0.9;0.7;1;0.5" dur="4.5s" repeatCount="indefinite" />
				<animateTransform attributeName="transform" type="translate" values="0,0; 0.2,0.5; -0.5,-0.2; 0.3,0.1; 0,0" dur="28s" repeatCount="indefinite" />
			</path>
			<path id="circle12-43" style="fill:#ffb347;stroke-width:0.404757;stroke-linejoin:round" d="m 106.23528,66.054237 a 0.22896528,0.22896528 0 0 1 -0.22896,0.228966 0.22896528,0.22896528 0 0 1 -0.22897,-0.228966 0.22896528,0.22896528 0 0 1 0.22897,-0.228965 0.22896528,0.22896528 0 0 1 0.22896,0.228965 z">
				<animate attributeName="opacity" values="0.6;1;0.4;0.8;0.6" dur="3.9s" repeatCount="indefinite" />
				<animateTransform attributeName="transform" type="translate" values="0,0; -0.8,-0.1; 0.1,0.8; -0.3,-0.4; 0,0" dur="19s" repeatCount="indefinite" />
			</path>
			<path id="circle12-4226" style="fill:#ffe9c4;stroke-width:0.404757;stroke-linejoin:round" d="m 69.193618,47.004234 a 0.22896528,0.22896528 0 0 1 -0.228965,0.228966 0.22896528,0.22896528 0 0 1 -0.228965,-0.228966 0.22896528,0.22896528 0 0 1 0.228965,-0.228965 0.22896528,0.22896528 0 0 1 0.228965,0.228965 z">
				<animate attributeName="opacity" values="0.4;0.9;0.5;1;0.4" dur="5.4s" repeatCount="indefinite" />
				<animateTransform attributeName="transform" type="translate" values="0,0; 0.5,-0.7; -0.7,0.5; 0.2,-0.3; 0,0" dur="26s" repeatCount="indefinite" />
			</path>
			<path id="circle12-89" style="fill:#ffd700;stroke-width:0.404757;stroke-linejoin:round" d="m 31.887369,66.318817 a 0.22896528,0.22896528 0 0 1 -0.228966,0.228965 0.22896528,0.22896528 0 0 1 -0.228965,-0.228965 0.22896528,0.22896528 0 0 1 0.228965,-0.228965 0.22896528,0.22896528 0 0 1 0.228966,0.228965 z">
				<animate attributeName="opacity" values="0.5;1;0.6;0.8;0.5" dur="3.7s" repeatCount="indefinite" />
				<animateTransform attributeName="transform" type="translate" values="0,0; -0.3,0.9; 0.6,-0.2; -0.1,0.5; 0,0" dur="21s" repeatCount="indefinite" />
			</path>
			<path id="circle12-8-793" style="fill:#ffb347;stroke-width:0.404757;stroke-linejoin:round" d="m 301.30231,9.6405228 v 0.2934188 a 0.22896528,0.22896528 0 0 0 -0.0907,0.0524 l -0.25404,-0.1467094 -0.0661,0.1145149 0.25404,0.1466579 a 0.22896528,0.22896528 0 0 0 -0.006,0.05235 0.22896528,0.22896528 0 0 0 0.006,0.0524 l -0.25404,0.146658 0.0661,0.114515 0.25409,-0.14671 a 0.22896528,0.22896528 0 0 0 0.0906,0.05235 v 0.293368 h 0.13224 v -0.293368 a 0.22896528,0.22896528 0 0 0 0.0906,-0.05235 l 0.25415,0.14671 0.0661,-0.114464 -0.25409,-0.146709 a 0.22896528,0.22896528 0 0 0 0.006,-0.0524 0.22896528,0.22896528 0 0 0 -0.006,-0.0523 l 0.25409,-0.1467089 -0.0661,-0.1145149 -0.25404,0.1467094 a 0.22896528,0.22896528 0 0 1 -5e-5,0 0.22896528,0.22896528 0 0 0 -0.0906,-0.0524 V 9.6405228 Z">
				<animate attributeName="opacity" values="0.6;0.9;0.5;1;0.6" dur="4.2s" repeatCount="indefinite" />
				<animateTransform attributeName="transform" type="translate" values="0,0; 0.9,-0.1; -0.1,0.9; 0.3,-0.5; 0,0" dur="24s" repeatCount="indefinite" />
			</path>
			<path id="circle12-8-793-2" style="fill:#ffb347;stroke-width:0.404757;stroke-linejoin:round" d="m 277.95876,59.795833 v 0.293419 a 0.22896528,0.22896528 0 0 0 -0.0907,0.0524 l -0.25404,-0.14671 -0.0661,0.114515 0.25404,0.146658 a 0.22896528,0.22896528 0 0 0 -0.006,0.05235 0.22896528,0.22896528 0 0 0 0.006,0.0524 l -0.25404,0.146658 0.0661,0.114515 0.25409,-0.14671 a 0.22896528,0.22896528 0 0 0 0.0906,0.05235 v 0.293368 h 0.13224 v -0.293368 a 0.22896528,0.22896528 0 0 0 0.0906,-0.05235 l 0.25415,0.14671 0.0661,-0.114464 -0.25409,-0.146709 a 0.22896528,0.22896528 0 0 0 0.006,-0.0524 0.22896528,0.22896528 0 0 0 -0.006,-0.0523 l 0.25409,-0.146709 -0.0661,-0.114515 -0.25404,0.14671 a 0.22896528,0.22896528 0 0 1 -5e-5,0 0.22896528,0.22896528 0 0 0 -0.0906,-0.0524 v -0.293418 z">
				<animate attributeName="opacity" values="0.4;1;0.6;0.8;0.4" dur="3.5s" repeatCount="indefinite" />
				<animateTransform attributeName="transform" type="translate" values="0,0; -0.2,0.6; 0.7,-0.3; -0.3,0.2; 0,0" dur="29s" repeatCount="indefinite" />
			</path>
			<path id="circle12-8-793-0" style="fill:#ffb347;stroke-width:0.404757;stroke-linejoin:round" d="m 213.40042,32.014583 v 0.293419 a 0.22896528,0.22896528 0 0 0 -0.0907,0.0524 l -0.25404,-0.14671 -0.0661,0.114515 0.25404,0.146658 a 0.22896528,0.22896528 0 0 0 -0.006,0.05235 0.22896528,0.22896528 0 0 0 0.006,0.0524 l -0.25404,0.146658 0.0661,0.114515 0.25409,-0.14671 a 0.22896528,0.22896528 0 0 0 0.0906,0.05235 v 0.293368 h 0.13224 v -0.293368 a 0.22896528,0.22896528 0 0 0 0.0906,-0.05235 l 0.25415,0.14671 0.0661,-0.114464 -0.25409,-0.146709 a 0.22896528,0.22896528 0 0 0 0.006,-0.0524 0.22896528,0.22896528 0 0 0 -0.006,-0.0523 l 0.25409,-0.146709 -0.0661,-0.114515 -0.25404,0.14671 a 0.22896528,0.22896528 0 0 1 -5e-5,0 0.22896528,0.22896528 0 0 0 -0.0906,-0.0524 v -0.293418 z">
				<animate attributeName="opacity" values="0.5;0.8;0.4;1;0.5" dur="5.6s" repeatCount="indefinite" />
				<animateTransform attributeName="transform" type="translate" values="0,0; 0.6,0.6; -0.6,-0.6; 0.3,0.3; 0,0" dur="20s" repeatCount="indefinite" />
			</path>
			<path id="circle12-8-793-6" style="fill:#ffffff;stroke-width:0.404757;stroke-linejoin:round;fill-opacity:1" d="m 32.16084,6.0854166 v 0.2934188 a 0.22896528,0.22896528 0 0 0 -0.0907,0.0524 L 31.8161,6.284526 31.75,6.3990409 32.00404,6.5456988 a 0.22896528,0.22896528 0 0 0 -0.006,0.05235 0.22896528,0.22896528 0 0 0 0.006,0.0524 l -0.25404,0.146658 0.0661,0.114515 0.25409,-0.14671 a 0.22896528,0.22896528 0 0 0 0.0906,0.05235 v 0.293368 h 0.13224 v -0.293368 a 0.22896528,0.22896528 0 0 0 0.0906,-0.05235 l 0.25415,0.14671 0.0661,-0.114464 -0.25409,-0.146709 a 0.22896528,0.22896528 0 0 0 0.006,-0.0524 0.22896528,0.22896528 0 0 0 -0.006,-0.0523 L 32.70388,6.3990399 32.63778,6.284525 32.38374,6.4312344 a 0.22896528,0.22896528 0 0 1 -5e-5,0 0.22896528,0.22896528 0 0 0 -0.0906,-0.0524 V 6.0854166 Z">
				<animate attributeName="opacity" values="0.2;0.9;0.6;1;0.2" dur="3.8s" repeatCount="indefinite" />
				<animateTransform attributeName="transform" type="translate" values="0,0; -0.8,0.2; 0.2,-0.8; -0.4,0.4; 0,0" dur="27s" repeatCount="indefinite" />
			</path>
			<path id="circle12-8-793-6-7" style="fill:#ffffff;fill-opacity:1;stroke-width:0.404757;stroke-linejoin:round" d="m 16.815007,42.333334 v 0.293418 a 0.22896528,0.22896528 0 0 0 -0.0907,0.0524 l -0.25404,-0.146709 -0.0661,0.114515 0.25404,0.146658 a 0.22896528,0.22896528 0 0 0 -0.006,0.05235 0.22896528,0.22896528 0 0 0 0.006,0.0524 l -0.25404,0.146658 0.0661,0.114515 0.25409,-0.14671 a 0.22896528,0.22896528 0 0 0 0.0906,0.05235 v 0.293368 h 0.13224 v -0.293368 a 0.22896528,0.22896528 0 0 0 0.0906,-0.05235 l 0.25415,0.14671 0.0661,-0.114464 -0.25409,-0.146709 a 0.22896528,0.22896528 0 0 0 0.006,-0.0524 0.22896528,0.22896528 0 0 0 -0.006,-0.0523 l 0.25409,-0.146709 -0.0661,-0.114515 -0.25404,0.146709 a 0.22896528,0.22896528 0 0 1 -5e-5,0 0.22896528,0.22896528 0 0 0 -0.0906,-0.0524 v -0.293417 z">
				<animate attributeName="opacity" values="0.4;0.9;0.5;1;0.4" dur="4.0s" repeatCount="indefinite" />
				<animateTransform attributeName="transform" type="translate" values="0,0; 0.7,-0.5; -0.5,0.7; 0.3,-0.3; 0,0" dur="22s" repeatCount="indefinite" />
			</path>
			<path id="circle12-8-793-6-0" style="fill:#ffffff;fill-opacity:1;stroke-width:0.404757;stroke-linejoin:round" d="m 49.358757,67.997917 v 0.293418 a 0.22896528,0.22896528 0 0 0 -0.0907,0.0524 l -0.25404,-0.146709 -0.0661,0.114515 0.25404,0.146658 a 0.22896528,0.22896528 0 0 0 -0.006,0.05235 0.22896528,0.22896528 0 0 0 0.006,0.0524 l -0.25404,0.146658 0.0661,0.114515 0.25409,-0.14671 a 0.22896528,0.22896528 0 0 0 0.0906,0.05235 v 0.293368 h 0.13224 v -0.293368 a 0.22896528,0.22896528 0 0 0 0.0906,-0.05235 l 0.25415,0.14671 0.0661,-0.114464 -0.25409,-0.146709 a 0.22896528,0.22896528 0 0 0 0.006,-0.0524 0.22896528,0.22896528 0 0 0 -0.006,-0.0523 l 0.25409,-0.146709 -0.0661,-0.114515 -0.25404,0.146709 a 0.22896528,0.22896528 0 0 1 -5e-5,0 0.22896528,0.22896528 0 0 0 -0.0906,-0.0524 v -0.293417 z">
				<animate attributeName="opacity" values="0.5;1;0.4;0.9;0.5" dur="3.3s" repeatCount="indefinite" />
				<animateTransform attributeName="transform" type="translate" values="0,0; -0.9,0.4; 0.4,-0.9; -0.2,0.5; 0,0" dur="25s" repeatCount="indefinite" />
			</path>
			<path id="circle12-8-793-6-4" style="fill:#ffffff;fill-opacity:1;stroke-width:0.404757;stroke-linejoin:round" d="m 58.090007,31.75 v 0.293418 a 0.22896528,0.22896528 0 0 0 -0.0907,0.0524 l -0.25404,-0.146709 -0.0661,0.114515 0.25404,0.146658 a 0.22896528,0.22896528 0 0 0 -0.006,0.05235 0.22896528,0.22896528 0 0 0 0.006,0.0524 l -0.25404,0.146658 0.0661,0.114515 0.25409,-0.14671 a 0.22896528,0.22896528 0 0 0 0.0906,0.05235 v 0.293368 h 0.13224 v -0.293368 a 0.22896528,0.22896528 0 0 0 0.0906,-0.05235 l 0.25415,0.14671 0.0661,-0.114464 -0.25409,-0.146709 a 0.22896528,0.22896528 0 0 0 0.006,-0.0524 0.22896528,0.22896528 0 0 0 -0.006,-0.0523 l 0.25409,-0.146709 -0.0661,-0.114515 -0.25404,0.146709 a 0.22896528,0.22896528 0 0 1 -5e-5,0 0.22896528,0.22896528 0 0 0 -0.0906,-0.0524 V 31.75 Z">
				<animate attributeName="opacity" values="0.3;0.8;0.5;1;0.3" dur="5.8s" repeatCount="indefinite" />
				<animateTransform attributeName="transform" type="translate" values="0,0; 0.3,-0.8; -0.8,0.3; 0.4,-0.4; 0,0" dur="21s" repeatCount="indefinite" />
			</path>
			<path id="circle12-68" style="fill:#b5d0ff;stroke-width:0.404757;stroke-linejoin:round" d="m 12.572789,32.716736 a 0.22896528,0.22896528 0 0 1 -0.228966,0.228965 0.22896528,0.22896528 0 0 1 -0.228965,-0.228965 0.22896528,0.22896528 0 0 1 0.228965,-0.228965 0.22896528,0.22896528 0 0 1 0.228966,0.228965 z">
				<animate attributeName="opacity" values="0.6;1;0.5;0.9;0.6" dur="3.1s" repeatCount="indefinite" />
				<animateTransform attributeName="transform" type="translate" values="0,0; -0.5,0.6; 0.6,-0.5; -0.3,0.3; 0,0" dur="26s" repeatCount="indefinite" />
			</path>
			<path id="circle12-8-793-6-48" style="fill:#ffffff;fill-opacity:1;stroke-width:0.404757;stroke-linejoin:round" d="m 85.871257,72.23125 v 0.293418 a 0.22896528,0.22896528 0 0 0 -0.0907,0.0524 l -0.25404,-0.146709 -0.0661,0.114515 0.25404,0.146658 a 0.22896528,0.22896528 0 0 0 -0.006,0.05235 0.22896528,0.22896528 0 0 0 0.006,0.0524 l -0.25404,0.146658 0.0661,0.114515 0.25409,-0.14671 a 0.22896528,0.22896528 0 0 0 0.0906,0.05235 v 0.293368 h 0.13224 v -0.293368 a 0.22896528,0.22896528 0 0 0 0.0906,-0.05235 l 0.25415,0.14671 0.0661,-0.114464 -0.25409,-0.146709 a 0.22896528,0.22896528 0 0 0 0.006,-0.0524 0.22896528,0.22896528 0 0 0 -0.006,-0.0523 l 0.25409,-0.146709 -0.0661,-0.114515 -0.25404,0.146709 a 0.22896528,0.22896528 0 0 1 -5e-5,0 0.22896528,0.22896528 0 0 0 -0.0906,-0.0524 V 72.23125 Z">
				<animate attributeName="opacity" values="0.4;0.8;0.6;1;0.4" dur="4.9s" repeatCount="indefinite" />
				<animateTransform attributeName="transform" type="translate" values="0,0; 0.1,0.6; -0.6,-0.1; 0.2,0.4; 0,0" dur="23s" repeatCount="indefinite" />
			</path>
			<path id="circle12-8-793-6-06" style="fill:#b5d0ff;fill-opacity:1;stroke-width:0.404757;stroke-linejoin:round" d="m 129.52751,63.764584 v 0.293418 a 0.22896528,0.22896528 0 0 0 -0.0907,0.0524 l -0.25404,-0.146709 -0.0661,0.114515 0.25404,0.146658 a 0.22896528,0.22896528 0 0 0 -0.006,0.05235 0.22896528,0.22896528 0 0 0 0.006,0.0524 l -0.25404,0.146658 0.0661,0.114515 0.25409,-0.14671 a 0.22896528,0.22896528 0 0 0 0.0906,0.05235 v 0.293368 h 0.13224 v -0.293368 a 0.22896528,0.22896528 0 0 0 0.0906,-0.05235 l 0.25415,0.14671 0.0661,-0.114464 -0.25409,-0.146709 a 0.22896528,0.22896528 0 0 0 0.006,-0.0524 0.22896528,0.22896528 0 0 0 -0.006,-0.0523 l 0.25409,-0.146709 -0.0661,-0.114515 -0.25404,0.146709 a 0.22896528,0.22896528 0 0 1 -5e-5,0 0.22896528,0.22896528 0 0 0 -0.0906,-0.0524 v -0.293417 z">
				<animate attributeName="opacity" values="0.5;1;0.7;0.9;0.5" dur="3.6s" repeatCount="indefinite" />
				<animateTransform attributeName="transform" type="translate" values="0,0; -0.4,0.7; 0.7,-0.4; -0.2,0.2; 0,0" dur="28s" repeatCount="indefinite" />
			</path>
			<path id="circle12-8-793-6-06-8" style="fill:#b5d0ff;fill-opacity:1;stroke-width:0.404757;stroke-linejoin:round" d="m 185.35459,37.041665 v 0.293418 a 0.22896528,0.22896528 0 0 0 -0.0907,0.0524 l -0.25404,-0.146709 -0.0661,0.114515 0.25404,0.146658 a 0.22896528,0.22896528 0 0 0 -0.006,0.05235 0.22896528,0.22896528 0 0 0 0.006,0.0524 l -0.25404,0.146658 0.0661,0.114515 0.25409,-0.14671 a 0.22896528,0.22896528 0 0 0 0.0906,0.05235 v 0.293368 h 0.13224 V 37.77351 a 0.22896528,0.22896528 0 0 0 0.0906,-0.05235 l 0.25415,0.14671 0.0661,-0.114464 -0.25409,-0.146709 a 0.22896528,0.22896528 0 0 0 0.006,-0.0524 0.22896528,0.22896528 0 0 0 -0.006,-0.0523 l 0.25409,-0.146709 -0.0661,-0.114515 -0.25404,0.146709 a 0.22896528,0.22896528 0 0 1 -5e-5,0 0.22896528,0.22896528 0 0 0 -0.0906,-0.0524 v -0.293417 z">
				<animate attributeName="opacity" values="0.3;0.9;0.4;1;0.3" dur="5.1s" repeatCount="indefinite" />
				<animateTransform attributeName="transform" type="translate" values="0,0; 0.8,0.8; -0.8,-0.8; 0.4,0.4; 0,0" dur="18s" repeatCount="indefinite" />
			</path>
			<path id="circle12-8-793-6-06-0" style="fill:#b5d0ff;fill-opacity:1;stroke-width:0.404757;stroke-linejoin:round" d="m 224.24834,75.406248 v 0.293418 a 0.22896528,0.22896528 0 0 0 -0.0907,0.0524 l -0.25404,-0.146709 -0.0661,0.114515 0.25404,0.146658 a 0.22896528,0.22896528 0 0 0 -0.006,0.05235 0.22896528,0.22896528 0 0 0 0.006,0.0524 l -0.25404,0.146658 0.0661,0.114515 0.25409,-0.14671 a 0.22896528,0.22896528 0 0 0 0.0906,0.05235 v 0.293368 h 0.13224 v -0.293368 a 0.22896528,0.22896528 0 0 0 0.0906,-0.05235 l 0.25415,0.14671 0.0661,-0.114464 -0.25409,-0.146709 a 0.22896528,0.22896528 0 0 0 0.006,-0.0524 0.22896528,0.22896528 0 0 0 -0.006,-0.0523 l 0.25409,-0.146709 -0.0661,-0.114515 -0.25404,0.146709 a 0.22896528,0.22896528 0 0 1 -5e-5,0 0.22896528,0.22896528 0 0 0 -0.0906,-0.0524 v -0.293417 z">
				<animate attributeName="opacity" values="0.6;0.9;0.5;1;0.6" dur="3.9s" repeatCount="indefinite" />
				<animateTransform attributeName="transform" type="translate" values="0,0; -0.1,0.9; 0.9,-0.1; -0.5,0.5; 0,0" dur="25s" repeatCount="indefinite" />
			</path>
			<path id="circle12-8-793-6-06-7" style="fill:#b5d0ff;fill-opacity:1;stroke-width:0.404757;stroke-linejoin:round" d="m 307.59209,74.347915 v 0.293418 a 0.22896528,0.22896528 0 0 0 -0.0907,0.0524 l -0.25404,-0.146709 -0.0661,0.114515 0.25404,0.146658 a 0.22896528,0.22896528 0 0 0 -0.006,0.05235 0.22896528,0.22896528 0 0 0 0.006,0.0524 l -0.25404,0.146658 0.0661,0.114515 0.25409,-0.14671 a 0.22896528,0.22896528 0 0 0 0.0906,0.05235 v 0.293368 h 0.13224 V 75.07976 a 0.22896528,0.22896528 0 0 0 0.0906,-0.05235 l 0.25415,0.14671 0.0661,-0.114464 -0.25409,-0.146709 a 0.22896528,0.22896528 0 0 0 0.006,-0.0524 0.22896528,0.22896528 0 0 0 -0.006,-0.0523 l 0.25409,-0.146709 -0.0661,-0.114515 -0.25404,0.146709 a 0.22896528,0.22896528 0 0 1 -5e-5,0 0.22896528,0.22896528 0 0 0 -0.0906,-0.0524 v -0.293417 z">
				<animate attributeName="opacity" values="0.4;1;0.6;0.8;0.4" dur="4.6s" repeatCount="indefinite" />
				<animateTransform attributeName="transform" type="translate" values="0,0; 0.5,0.8; -0.8,-0.5; 0.3,0.3; 0,0" dur="29s" repeatCount="indefinite" />
			</path>
		</g>
	</g>
</svg>